G04 #@! TF.FileFunction,Copper,L2,Bot,Signal*
%FSLAX46Y46*%
G04 Gerber Fmt 4.6, Leading zero omitted, Abs format (unit mm)*
G04 Created by KiCad (PCBNEW (2015-09-15 BZR 6201)-product) date tis 17 nov 2015 13:25:14*
%MOMM*%
G01*
G04 APERTURE LIST*
%ADD10C,0.100000*%
%ADD11C,2.300000*%
%ADD12R,1.198880X1.699260*%
%ADD13O,1.198880X1.699260*%
%ADD14R,1.699260X1.198880*%
%ADD15O,1.699260X1.198880*%
%ADD16R,1.727200X2.032000*%
%ADD17O,1.727200X2.032000*%
%ADD18R,1.824000X1.524000*%
%ADD19O,1.824000X1.524000*%
%ADD20C,4.064000*%
%ADD21C,0.600000*%
%ADD22C,0.500000*%
%ADD23C,0.500000*%
%ADD24C,0.254000*%
%ADD25C,0.400000*%
%ADD26C,0.203000*%
%ADD27C,1.000000*%
G04 APERTURE END LIST*
D10*
D11*
X91977000Y-127539200D03*
X94517000Y-124999200D03*
X89437000Y-124999200D03*
X89437000Y-130079200D03*
X94517000Y-130079200D03*
D12*
X111997720Y-85000000D03*
D13*
X116000760Y-85000000D03*
X113999240Y-85000000D03*
X117999740Y-85000000D03*
D12*
X123996200Y-85000000D03*
D13*
X127999240Y-85000000D03*
X125997720Y-85000000D03*
X129998220Y-85000000D03*
X131999740Y-85000000D03*
X134001260Y-85000000D03*
D14*
X139000000Y-130502020D03*
D15*
X139000000Y-126498980D03*
X139000000Y-128500500D03*
X139000000Y-124500000D03*
X139000000Y-122498480D03*
X139000000Y-120496960D03*
D14*
X145000000Y-95497720D03*
D15*
X145000000Y-99500760D03*
X145000000Y-97499240D03*
X145000000Y-101499740D03*
D14*
X151000000Y-91496200D03*
D15*
X151000000Y-95499240D03*
X151000000Y-93497720D03*
X151000000Y-97498220D03*
X151000000Y-99499740D03*
X151000000Y-101501260D03*
D14*
X151000000Y-117997720D03*
D15*
X151000000Y-122000760D03*
X151000000Y-119999240D03*
X151000000Y-123999740D03*
D16*
X110710000Y-128250000D03*
D17*
X113250000Y-128250000D03*
X115790000Y-128250000D03*
D16*
X110710000Y-131250000D03*
D17*
X113250000Y-131250000D03*
X115790000Y-131250000D03*
D16*
X110710000Y-125250000D03*
D17*
X113250000Y-125250000D03*
X115790000Y-125250000D03*
D16*
X110710000Y-122250000D03*
D17*
X113250000Y-122250000D03*
X115790000Y-122250000D03*
D16*
X119960000Y-131250000D03*
D17*
X122500000Y-131250000D03*
X125040000Y-131250000D03*
D16*
X119960000Y-128250000D03*
D17*
X122500000Y-128250000D03*
X125040000Y-128250000D03*
D16*
X119960000Y-125250000D03*
D17*
X122500000Y-125250000D03*
X125040000Y-125250000D03*
D16*
X119960000Y-122250000D03*
D17*
X122500000Y-122250000D03*
X125040000Y-122250000D03*
D16*
X129210000Y-131250000D03*
D17*
X131750000Y-131250000D03*
X134290000Y-131250000D03*
D16*
X129210000Y-128250000D03*
D17*
X131750000Y-128250000D03*
X134290000Y-128250000D03*
D16*
X129210000Y-125250000D03*
D17*
X131750000Y-125250000D03*
X134290000Y-125250000D03*
D16*
X129210000Y-122250000D03*
D17*
X131750000Y-122250000D03*
X134290000Y-122250000D03*
D18*
X87651000Y-93122000D03*
D19*
X95271000Y-93122000D03*
X87651000Y-95662000D03*
X95271000Y-95662000D03*
X87651000Y-98202000D03*
X95271000Y-98202000D03*
X87651000Y-100742000D03*
X95271000Y-100742000D03*
X87651000Y-103282000D03*
X95271000Y-103282000D03*
X87651000Y-105822000D03*
X95271000Y-105822000D03*
X87651000Y-108362000D03*
X95271000Y-108362000D03*
X87651000Y-110902000D03*
X95271000Y-110902000D03*
D20*
X150000000Y-86000000D03*
X150000000Y-130000000D03*
X106000000Y-130000000D03*
X106000000Y-86000000D03*
D21*
X99500000Y-127250000D03*
X145750000Y-126307980D03*
X145749980Y-86750000D03*
X124862000Y-93000002D03*
X141372000Y-95281000D03*
X108077000Y-125603000D03*
D22*
X119606831Y-100919180D03*
X138176000Y-100584000D03*
D21*
X138557000Y-103124000D03*
X121000000Y-93250000D03*
X119250000Y-93250000D03*
X92104000Y-118827000D03*
X92866000Y-118827000D03*
X93628000Y-118827000D03*
X94390000Y-118827000D03*
X117500000Y-115500000D03*
X145500000Y-119000000D03*
X142500000Y-108500000D03*
X139250000Y-88000000D03*
X139250000Y-88750000D03*
X131000000Y-100250000D03*
D22*
X125250000Y-99750000D03*
D21*
X114500000Y-104500000D03*
X114500000Y-103750000D03*
X115500000Y-103750000D03*
X115500000Y-104500000D03*
X123000000Y-93250000D03*
X127750000Y-89750000D03*
X130000000Y-107500000D03*
X126750000Y-107500000D03*
X123750000Y-112750000D03*
X119250000Y-112500000D03*
X124750000Y-107500000D03*
X124750000Y-108500000D03*
X124750000Y-109500000D03*
X124750000Y-110500000D03*
X126750000Y-108500000D03*
X126750000Y-109500000D03*
X109250000Y-112250000D03*
X109250000Y-115000000D03*
X130000000Y-108500000D03*
X130000000Y-109500000D03*
X133500000Y-91000000D03*
D22*
X136000000Y-94000000D03*
D21*
X137750000Y-97500000D03*
X144750000Y-89750000D03*
X96287000Y-123729000D03*
X96922000Y-123729000D03*
X97557000Y-123729000D03*
X102250000Y-119250000D03*
X97438000Y-117557000D03*
X103500000Y-119250000D03*
X102750000Y-96500000D03*
X101750000Y-96500000D03*
X101750000Y-97500000D03*
X102750000Y-97500000D03*
X102750000Y-98500000D03*
X109000000Y-96500000D03*
X105500000Y-96000000D03*
X117000000Y-95000000D03*
X117000000Y-96000000D03*
X117750000Y-91750000D03*
X119500000Y-97500000D03*
X109750000Y-91250000D03*
X111000000Y-91250000D03*
X112250000Y-91250000D03*
X112500000Y-96500000D03*
X133500000Y-103500000D03*
X134500000Y-103500000D03*
X134500000Y-104500000D03*
X121941000Y-89820000D03*
X95000000Y-127000000D03*
X95000000Y-128000000D03*
X92500000Y-130500000D03*
X91500000Y-130500000D03*
X89000000Y-128000000D03*
X89000000Y-127000000D03*
X89000000Y-123000000D03*
X89000000Y-121500000D03*
X89000000Y-120000000D03*
X90500000Y-120000000D03*
X97500000Y-127250000D03*
X100000000Y-99500000D03*
X101000000Y-99500000D03*
X102256000Y-120808000D03*
X103526000Y-120808000D03*
X135000000Y-116000000D03*
X139000000Y-116000000D03*
X108250000Y-99500000D03*
X102000000Y-103250000D03*
X110500000Y-103750000D03*
X111250000Y-112000000D03*
X113686000Y-91852000D03*
X146833008Y-87915000D03*
X146833004Y-84486000D03*
X102750000Y-126245980D03*
X121793000Y-98806000D03*
X140000000Y-99750000D03*
X125750000Y-96500000D03*
X135750000Y-96750000D03*
X117750000Y-102250000D03*
X106750000Y-114000000D03*
X135750000Y-98750000D03*
X135500000Y-115000000D03*
X125750000Y-89750000D03*
X121000000Y-113750000D03*
X138500000Y-87250000D03*
X99500000Y-123750000D03*
X103250000Y-115750000D03*
X106750000Y-117250000D03*
X99000000Y-116250000D03*
X126767000Y-92995000D03*
X126640000Y-96932000D03*
X130577000Y-103536000D03*
X130958000Y-116236000D03*
X129000000Y-90750000D03*
D22*
X127500000Y-101250000D03*
X126500000Y-101250000D03*
D21*
X128000000Y-90750000D03*
X130000000Y-90750000D03*
D22*
X128500000Y-101250000D03*
D21*
X131000000Y-90750000D03*
D22*
X129500000Y-101250000D03*
D21*
X140483000Y-115220000D03*
X138324000Y-111156000D03*
X143000000Y-97000000D03*
X133500000Y-108500000D03*
X133500000Y-107500000D03*
X133500000Y-109500000D03*
X133500000Y-110500000D03*
X126499241Y-112050637D03*
X122750000Y-120000000D03*
X127298120Y-112008069D03*
X123750000Y-119500000D03*
X128098081Y-111999011D03*
X124750000Y-118750000D03*
X128898092Y-112000071D03*
X125750000Y-118000000D03*
X139500000Y-112500006D03*
X135000000Y-112250000D03*
X122500000Y-111250000D03*
X123750000Y-111500000D03*
X123750000Y-110500000D03*
X123750000Y-109500000D03*
X123750000Y-108500000D03*
X123750000Y-107500000D03*
X123750000Y-106500000D03*
X123750000Y-105500000D03*
X117750000Y-117750000D03*
X115750000Y-120250000D03*
X116000000Y-115250000D03*
X107500000Y-123250000D03*
X115750000Y-118750000D03*
X108250000Y-122500000D03*
X142515000Y-114712000D03*
X138000000Y-109250000D03*
X141250000Y-114500000D03*
X138000000Y-110250000D03*
X138969661Y-113530339D03*
X133500000Y-111500000D03*
D23*
X99500000Y-126250000D02*
X99500000Y-127250000D01*
D24*
X148058240Y-123999740D02*
X146049999Y-126007981D01*
X145500000Y-126057980D02*
X145750000Y-126307980D01*
X145500000Y-119000000D02*
X145500000Y-126057980D01*
X139000000Y-124500000D02*
X143942020Y-124500000D01*
X151000000Y-123999740D02*
X148058240Y-123999740D01*
X145450001Y-126007981D02*
X145750000Y-126307980D01*
X143942020Y-124500000D02*
X145450001Y-126007981D01*
X146049999Y-126007981D02*
X145750000Y-126307980D01*
X145449981Y-87049999D02*
X145749980Y-86750000D01*
X144750000Y-87749980D02*
X145449981Y-87049999D01*
X144750000Y-88000000D02*
X144750000Y-87749980D01*
X124591826Y-93250000D02*
X123000000Y-93250000D01*
X124862000Y-93000002D02*
X124612002Y-93250000D01*
X124612002Y-93250000D02*
X124591826Y-93250000D01*
X121000000Y-93250000D02*
X121000000Y-90761000D01*
X121000000Y-90761000D02*
X121941000Y-89820000D01*
X119250000Y-93250000D02*
X117750000Y-91750000D01*
X121000000Y-93250000D02*
X123000000Y-93250000D01*
X137750000Y-97500000D02*
X139153000Y-97500000D01*
X139153000Y-97500000D02*
X141372000Y-95281000D01*
X118500000Y-119520000D02*
X118500000Y-116500000D01*
X118500000Y-116500000D02*
X117500000Y-115500000D01*
X119960000Y-122250000D02*
X119960000Y-120980000D01*
X119960000Y-120980000D02*
X118500000Y-119520000D01*
X138557000Y-103124000D02*
X144229180Y-103124000D01*
X144229180Y-103124000D02*
X145000000Y-102353180D01*
X145000000Y-102353180D02*
X145000000Y-101499740D01*
X139250000Y-88000000D02*
X144750000Y-88000000D01*
X144750000Y-89750000D02*
X144750000Y-88000000D01*
X125250000Y-99750000D02*
X124896447Y-99750000D01*
X124896447Y-99750000D02*
X122646447Y-97500000D01*
X122646447Y-97500000D02*
X119853553Y-97500000D01*
X119853553Y-97500000D02*
X119500000Y-97500000D01*
X119606831Y-100919180D02*
X119606831Y-97606831D01*
X119606831Y-97606831D02*
X119500000Y-97500000D01*
X115951000Y-102945447D02*
X115951000Y-101049000D01*
X115951000Y-101049000D02*
X119500000Y-97500000D01*
X115500000Y-103750000D02*
X115500000Y-103396447D01*
X115500000Y-103396447D02*
X115951000Y-102945447D01*
X111997720Y-85000000D02*
X111997720Y-90997720D01*
X111997720Y-90997720D02*
X112250000Y-91250000D01*
X108077000Y-125603000D02*
X108430000Y-125250000D01*
X108430000Y-125250000D02*
X110710000Y-125250000D01*
X136000000Y-94000000D02*
X137750000Y-95750000D01*
X137750000Y-95750000D02*
X137750000Y-97500000D01*
D25*
X97557000Y-123729000D02*
X97557000Y-117676000D01*
X97557000Y-117676000D02*
X97438000Y-117557000D01*
X97438000Y-115668000D02*
X100856000Y-112250000D01*
X100856000Y-112250000D02*
X109250000Y-112250000D01*
X97438000Y-117557000D02*
X97438000Y-115668000D01*
D24*
X138557000Y-103124000D02*
X138557000Y-100965000D01*
X138557000Y-100965000D02*
X138425999Y-100833999D01*
X138425999Y-100833999D02*
X138176000Y-100584000D01*
X138203447Y-103124000D02*
X138557000Y-103124000D01*
X135876000Y-103124000D02*
X138203447Y-103124000D01*
X134500000Y-104500000D02*
X135876000Y-103124000D01*
D23*
X110710000Y-125250000D02*
X110710000Y-125460000D01*
X129250000Y-125290000D02*
X129210000Y-125250000D01*
X112000000Y-126750000D02*
X110710000Y-125460000D01*
X120000000Y-126750000D02*
X129250000Y-126750000D01*
X129250000Y-125290000D02*
X129250000Y-126750000D01*
X119960000Y-126750000D02*
X120000000Y-126750000D01*
X119960000Y-125250000D02*
X119960000Y-126750000D01*
X112000000Y-126750000D02*
X120000000Y-126750000D01*
X92866000Y-118827000D02*
X92104000Y-118827000D01*
X94390000Y-118827000D02*
X93628000Y-118827000D01*
D24*
X143250000Y-119000000D02*
X145500000Y-119000000D01*
X142500000Y-108500000D02*
X145500000Y-111500000D01*
X145500000Y-111500000D02*
X145500000Y-119000000D01*
X114500000Y-103750000D02*
X115500000Y-103750000D01*
X114500000Y-104500000D02*
X115500000Y-104500000D01*
X130000000Y-107500000D02*
X126750000Y-107500000D01*
D23*
X123750000Y-112750000D02*
X123500000Y-112500000D01*
X123500000Y-112500000D02*
X119250000Y-112500000D01*
X124750000Y-107500000D02*
X124750000Y-108500000D01*
X124750000Y-109500000D02*
X124750000Y-110500000D01*
X126750000Y-107500000D02*
X126750000Y-108500000D01*
D24*
X109250000Y-112250000D02*
X109250000Y-115000000D01*
X130000000Y-107500000D02*
X130000000Y-108500000D01*
D26*
X96287000Y-123729000D02*
X96922000Y-123729000D01*
D24*
X101750000Y-96500000D02*
X101750000Y-97500000D01*
X102750000Y-97500000D02*
X102750000Y-98500000D01*
X105500000Y-96500000D02*
X102750000Y-96500000D01*
X109000000Y-96500000D02*
X105500000Y-96500000D01*
X105500000Y-96000000D02*
X105500000Y-96500000D01*
X117750000Y-94250000D02*
X117000000Y-95000000D01*
X117000000Y-96000000D02*
X118500000Y-97500000D01*
X118500000Y-97500000D02*
X119500000Y-97500000D01*
X117750000Y-91750000D02*
X117750000Y-94250000D01*
X112500000Y-94000000D02*
X109750000Y-91250000D01*
X111000000Y-91250000D02*
X112250000Y-91250000D01*
X112500000Y-96500000D02*
X112500000Y-94000000D01*
X133500000Y-103500000D02*
X134500000Y-103500000D01*
X95000000Y-128000000D02*
X95000000Y-127000000D01*
X91500000Y-130500000D02*
X92500000Y-130500000D01*
X89000000Y-127000000D02*
X89000000Y-128000000D01*
X89000000Y-121500000D02*
X89000000Y-123000000D01*
X90500000Y-120000000D02*
X89000000Y-120000000D01*
X100000000Y-99500000D02*
X101000000Y-99500000D01*
X102250000Y-120802000D02*
X102256000Y-120808000D01*
X103500000Y-120782000D02*
X103526000Y-120808000D01*
X103500000Y-119250000D02*
X103500000Y-120782000D01*
X140250000Y-116000000D02*
X143250000Y-119000000D01*
X139000000Y-116000000D02*
X135000000Y-116000000D01*
X139000000Y-116000000D02*
X140250000Y-116000000D01*
D23*
X98557000Y-117557000D02*
X100250000Y-119250000D01*
X100250000Y-119250000D02*
X102250000Y-119250000D01*
X97438000Y-117557000D02*
X98557000Y-117557000D01*
X102250000Y-119250000D02*
X103500000Y-119250000D01*
D24*
X102250000Y-119250000D02*
X102250000Y-120802000D01*
D27*
X115199251Y-92300749D02*
X115199251Y-99050749D01*
X117125000Y-90375000D02*
X115199251Y-92300749D01*
X115199251Y-99050749D02*
X110799999Y-103450001D01*
X110799999Y-103450001D02*
X110500000Y-103750000D01*
X111250000Y-112000000D02*
X112500000Y-113250000D01*
X112500000Y-113250000D02*
X117500000Y-113250000D01*
X117500000Y-113250000D02*
X119750000Y-115500000D01*
X119750000Y-115500000D02*
X119750000Y-118750000D01*
X119750000Y-118750000D02*
X122500000Y-121500000D01*
X122500000Y-121500000D02*
X122500000Y-122250000D01*
X116000760Y-85000000D02*
X116000760Y-89250760D01*
X116000760Y-89250760D02*
X117125000Y-90375000D01*
X120250000Y-87250000D02*
X135000000Y-87250000D01*
X143247720Y-95497720D02*
X135000000Y-87250000D01*
X120250000Y-87250000D02*
X117125000Y-90375000D01*
X143247720Y-95497720D02*
X145000000Y-95497720D01*
X151000000Y-117997720D02*
X151000000Y-101501260D01*
D23*
X113250000Y-122250000D02*
X113250000Y-123000000D01*
X113250000Y-128250000D02*
X113250000Y-129000000D01*
X113250000Y-129250000D02*
X113250000Y-128250000D01*
X122250000Y-129750000D02*
X113750000Y-129750000D01*
X113750000Y-129750000D02*
X113250000Y-129250000D01*
X131000000Y-129750000D02*
X122250000Y-129750000D01*
X131750000Y-129000000D02*
X131000000Y-129750000D01*
X131750000Y-128250000D02*
X131750000Y-129000000D01*
X122500000Y-129750000D02*
X122250000Y-129750000D01*
X122500000Y-128250000D02*
X122500000Y-129750000D01*
D24*
X108250000Y-99500000D02*
X104500000Y-103250000D01*
X104500000Y-103250000D02*
X102000000Y-103250000D01*
D27*
X113999240Y-91538760D02*
X113985999Y-91552001D01*
X113999240Y-85000000D02*
X113999240Y-91538760D01*
X113985999Y-91552001D02*
X113686000Y-91852000D01*
D23*
X146533009Y-87615001D02*
X146833008Y-87915000D01*
X146500000Y-87581992D02*
X146533009Y-87615001D01*
X146500000Y-85000000D02*
X146500000Y-87581992D01*
X146533005Y-84785999D02*
X146833004Y-84486000D01*
X146500000Y-84819004D02*
X146533005Y-84785999D01*
X146500000Y-85000000D02*
X146500000Y-84819004D01*
X102325736Y-126245980D02*
X102750000Y-126245980D01*
X103049999Y-125945981D02*
X102750000Y-126245980D01*
X106750000Y-122245980D02*
X103049999Y-125945981D01*
X101995980Y-126245980D02*
X102325736Y-126245980D01*
X106750000Y-117250000D02*
X106750000Y-122245980D01*
X99500000Y-123750000D02*
X101995980Y-126245980D01*
X125751000Y-110902000D02*
X125751000Y-111999000D01*
X125250000Y-102250000D02*
X125250000Y-103500000D01*
X125750000Y-110901000D02*
X125751000Y-110902000D01*
X125750000Y-104000000D02*
X125750000Y-110901000D01*
X121424264Y-113750000D02*
X121000000Y-113750000D01*
X125250000Y-103500000D02*
X125750000Y-104000000D01*
X125751000Y-111999000D02*
X124000000Y-113750000D01*
X124000000Y-113750000D02*
X121424264Y-113750000D01*
D27*
X134000000Y-119000000D02*
X135496960Y-120496960D01*
X135496960Y-120496960D02*
X139000000Y-120496960D01*
D24*
X122750000Y-99763000D02*
X122042999Y-99055999D01*
X122750000Y-102250000D02*
X122750000Y-99763000D01*
X122042999Y-99055999D02*
X121793000Y-98806000D01*
D23*
X125997170Y-98099990D02*
X125500001Y-97602821D01*
X125750000Y-100500000D02*
X125997170Y-100252830D01*
X125500001Y-96749999D02*
X125750000Y-96500000D01*
X125500001Y-97602821D02*
X125500001Y-96749999D01*
X125750000Y-102250000D02*
X125750000Y-100500000D01*
X125997170Y-100252830D02*
X125997170Y-98099990D01*
D24*
X139000000Y-98750000D02*
X135750000Y-98750000D01*
X140000000Y-99750000D02*
X139000000Y-98750000D01*
D27*
X132250000Y-102250000D02*
X132250000Y-115000000D01*
X132250000Y-115000000D02*
X132250000Y-117250000D01*
X132250000Y-117250000D02*
X134000000Y-119000000D01*
X135750000Y-98750000D02*
X135750000Y-96750000D01*
X125750000Y-102250000D02*
X132250000Y-102250000D01*
X135750000Y-99500000D02*
X135750000Y-98750000D01*
X132250000Y-102250000D02*
X133000000Y-102250000D01*
X133000000Y-102250000D02*
X135750000Y-99500000D01*
X125250000Y-102250000D02*
X125750000Y-102250000D01*
X122750000Y-102250000D02*
X125250000Y-102250000D01*
X117750000Y-102250000D02*
X122750000Y-102250000D01*
D23*
X106750000Y-117250000D02*
X106750000Y-114000000D01*
X125750000Y-96500000D02*
X125750000Y-89750000D01*
X138500000Y-85000000D02*
X146500000Y-85000000D01*
X134001260Y-85000000D02*
X138500000Y-85000000D01*
X135500000Y-115000000D02*
X132250000Y-115000000D01*
X125250000Y-102250000D02*
X125250000Y-102500000D01*
X138500000Y-85000000D02*
X138500000Y-87250000D01*
X106750000Y-117250000D02*
X103500000Y-117250000D01*
X103250000Y-115750000D02*
X103500000Y-116000000D01*
X100000000Y-117250000D02*
X99000000Y-116250000D01*
X103500000Y-117250000D02*
X100000000Y-117250000D01*
X103500000Y-116000000D02*
X103500000Y-117250000D01*
D24*
X126640000Y-96932000D02*
X126640000Y-93122000D01*
X126640000Y-93122000D02*
X126767000Y-92995000D01*
X130958000Y-116236000D02*
X130958000Y-103917000D01*
X130958000Y-103917000D02*
X130577000Y-103536000D01*
X139250190Y-128500500D02*
X139000000Y-128500500D01*
X128000000Y-91750000D02*
X129000000Y-90750000D01*
X128000000Y-91750000D02*
X127999240Y-100750760D01*
X127999240Y-100750760D02*
X127500000Y-101250000D01*
X127500000Y-100250000D02*
X126500000Y-101250000D01*
X127500000Y-91250000D02*
X127500000Y-100250000D01*
X128000000Y-90750000D02*
X127500000Y-91250000D01*
X130000000Y-91000000D02*
X130000000Y-90750000D01*
X128500000Y-92500000D02*
X130000000Y-91000000D01*
X128500000Y-101250000D02*
X128500000Y-92500000D01*
X129000000Y-92750000D02*
X131000000Y-90750000D01*
X129000000Y-100750000D02*
X129000000Y-92750000D01*
X129000000Y-100750000D02*
X129500000Y-101250000D01*
X140610000Y-111918000D02*
X140610000Y-115093000D01*
X140610000Y-115093000D02*
X140483000Y-115220000D01*
X139848000Y-111156000D02*
X140610000Y-111918000D01*
X138324000Y-111156000D02*
X139848000Y-111156000D01*
X144250760Y-99500760D02*
X143000000Y-98250000D01*
X143000000Y-98250000D02*
X143000000Y-97000000D01*
X145000000Y-99500760D02*
X144250760Y-99500760D01*
X150999240Y-95500000D02*
X151000000Y-95499240D01*
X149500760Y-95499240D02*
X148750000Y-96250000D01*
X148750000Y-96250000D02*
X148750000Y-102750000D01*
X148750000Y-102750000D02*
X145500000Y-106000000D01*
X136000000Y-106000000D02*
X145500000Y-106000000D01*
X133500000Y-108500000D02*
X136000000Y-106000000D01*
X151000000Y-95499240D02*
X149500760Y-95499240D01*
X148250000Y-102500000D02*
X145250000Y-105500000D01*
X148250000Y-95000000D02*
X148250000Y-102500000D01*
X149750000Y-93500000D02*
X148250000Y-95000000D01*
X135500000Y-105500000D02*
X145250000Y-105500000D01*
X133500000Y-107500000D02*
X135500000Y-105500000D01*
X150997720Y-93500000D02*
X151000000Y-93497720D01*
X149750000Y-93500000D02*
X150997720Y-93500000D01*
X151000000Y-97498220D02*
X149705782Y-97498220D01*
X149250000Y-103000000D02*
X145750000Y-106500000D01*
X149250000Y-97954002D02*
X149250000Y-103000000D01*
X149705782Y-97498220D02*
X149250000Y-97954002D01*
X133500000Y-109500000D02*
X136500000Y-106500000D01*
X136500000Y-106500000D02*
X145750000Y-106500000D01*
X151000000Y-99499740D02*
X150000260Y-99499740D01*
X149750000Y-103250000D02*
X146000000Y-107000000D01*
X149750000Y-99750000D02*
X149750000Y-103250000D01*
X150000260Y-99499740D02*
X149750000Y-99750000D01*
X133500000Y-110500000D02*
X137000000Y-107000000D01*
X146000000Y-107000000D02*
X137000000Y-107000000D01*
X126499241Y-112500759D02*
X126499241Y-112474901D01*
X122750000Y-116250000D02*
X126499241Y-112500759D01*
X122750000Y-120000000D02*
X122750000Y-116250000D01*
X126499241Y-112474901D02*
X126499241Y-112050637D01*
X123750000Y-116000000D02*
X127298120Y-112451880D01*
X127298120Y-112451880D02*
X127298120Y-112432333D01*
X127298120Y-112432333D02*
X127298120Y-112008069D01*
X123750000Y-119500000D02*
X123750000Y-116000000D01*
X124750000Y-118750000D02*
X124750000Y-115750000D01*
X128098081Y-112401919D02*
X128098081Y-111999011D01*
X124750000Y-115750000D02*
X128098081Y-112401919D01*
X128898092Y-112424335D02*
X128898092Y-112000071D01*
X125750000Y-118000000D02*
X128898092Y-114851908D01*
X128898092Y-114851908D02*
X128898092Y-112424335D01*
X135000000Y-112250000D02*
X135250000Y-112500000D01*
X135250000Y-112500000D02*
X139499994Y-112500000D01*
X139499994Y-112500000D02*
X139500000Y-112500006D01*
X99250000Y-111000000D02*
X99140000Y-110890000D01*
X99140000Y-110890000D02*
X95310000Y-110890000D01*
X122500000Y-111250000D02*
X122250000Y-111000000D01*
X122250000Y-111000000D02*
X99250000Y-111000000D01*
X99500000Y-110500000D02*
X97350000Y-108350000D01*
X97350000Y-108350000D02*
X95310000Y-108350000D01*
X123750000Y-111500000D02*
X122750000Y-110500000D01*
X122750000Y-110500000D02*
X99500000Y-110500000D01*
X123750000Y-110500000D02*
X123250000Y-110000000D01*
X99704002Y-109954002D02*
X96795998Y-107045998D01*
X96795998Y-107045998D02*
X96795998Y-106045998D01*
X96795998Y-106045998D02*
X96560000Y-105810000D01*
X96560000Y-105810000D02*
X95310000Y-105810000D01*
X123250000Y-110000000D02*
X99704002Y-109954002D01*
X95330000Y-103250000D02*
X95310000Y-103270000D01*
X100000000Y-109500000D02*
X97250000Y-106750000D01*
X100000000Y-109500000D02*
X123750000Y-109500000D01*
X97250000Y-104000000D02*
X96500000Y-103250000D01*
X97250000Y-106750000D02*
X97250000Y-104000000D01*
X95330000Y-103250000D02*
X96500000Y-103250000D01*
X123250000Y-109000000D02*
X100250000Y-109000000D01*
X96482696Y-100732696D02*
X97750000Y-102000000D01*
X97750000Y-102000000D02*
X97750000Y-106500000D01*
X97750000Y-106500000D02*
X100250000Y-109000000D01*
X96482696Y-100732696D02*
X95310000Y-100730000D01*
X123750000Y-108500000D02*
X123250000Y-109000000D01*
X122750000Y-108500000D02*
X123750000Y-107500000D01*
X95310000Y-98190000D02*
X96692899Y-98192899D01*
X98250000Y-99750000D02*
X96692899Y-98192899D01*
X98250000Y-106250000D02*
X98250000Y-99750000D01*
X100500000Y-108500000D02*
X98250000Y-106250000D01*
X100500000Y-108500000D02*
X122750000Y-108500000D01*
X123750000Y-106500000D02*
X122250000Y-108000000D01*
X96652359Y-95652359D02*
X95310000Y-95650000D01*
X98750000Y-97750000D02*
X96652359Y-95652359D01*
X98750000Y-106000000D02*
X98750000Y-97750000D01*
X100750000Y-108000000D02*
X98750000Y-106000000D01*
X122250000Y-108000000D02*
X100750000Y-108000000D01*
X121750000Y-107500000D02*
X123750000Y-105500000D01*
X95310000Y-93110000D02*
X96612322Y-93112322D01*
X99250000Y-95750000D02*
X96612322Y-93112322D01*
X99250000Y-105750000D02*
X99250000Y-95750000D01*
X101000000Y-107500000D02*
X99250000Y-105750000D01*
X101000000Y-107500000D02*
X121750000Y-107500000D01*
X117250000Y-120250000D02*
X117750000Y-119750000D01*
X117750000Y-119750000D02*
X117750000Y-117750000D01*
X115750000Y-120250000D02*
X117250000Y-120250000D01*
X116000000Y-115250000D02*
X116000000Y-116500000D01*
X108750000Y-123250000D02*
X107500000Y-123250000D01*
X109250000Y-122750000D02*
X108750000Y-123250000D01*
X109250000Y-121000000D02*
X109250000Y-122750000D01*
X110250000Y-120000000D02*
X109250000Y-121000000D01*
X113500000Y-120000000D02*
X110250000Y-120000000D01*
X114000000Y-119500000D02*
X113500000Y-120000000D01*
X116500000Y-119500000D02*
X114000000Y-119500000D01*
X116750000Y-119250000D02*
X116500000Y-119500000D01*
X116750000Y-117250000D02*
X116750000Y-119250000D01*
X116000000Y-116500000D02*
X116750000Y-117250000D01*
X115750000Y-118750000D02*
X113750000Y-118750000D01*
X108250000Y-121250000D02*
X108250000Y-122500000D01*
X110000000Y-119500000D02*
X108250000Y-121250000D01*
X113000000Y-119500000D02*
X110000000Y-119500000D01*
X113750000Y-118750000D02*
X113000000Y-119500000D01*
X142515000Y-114287736D02*
X142515000Y-114712000D01*
X140750000Y-109250000D02*
X142515000Y-111015000D01*
X138000000Y-109250000D02*
X140750000Y-109250000D01*
X142515000Y-111015000D02*
X142515000Y-114287736D01*
X138000000Y-110250000D02*
X140250000Y-110250000D01*
X140250000Y-110250000D02*
X141250000Y-111250000D01*
X141250000Y-111250000D02*
X141250000Y-114500000D01*
X133500000Y-111924264D02*
X135106075Y-113530339D01*
X138616108Y-113530339D02*
X138969661Y-113530339D01*
X135106075Y-113530339D02*
X138616108Y-113530339D01*
X133500000Y-111500000D02*
X133500000Y-111924264D01*
G36*
X149973000Y-116894330D02*
X149955076Y-116897703D01*
X149775710Y-117013122D01*
X149655380Y-117189231D01*
X149613046Y-117398280D01*
X149613046Y-118597160D01*
X149649793Y-118792454D01*
X149765212Y-118971820D01*
X149941321Y-119092150D01*
X150056814Y-119115538D01*
X149926327Y-119202727D01*
X149682145Y-119568170D01*
X149596400Y-119999240D01*
X149682145Y-120430310D01*
X149926327Y-120795753D01*
X150232003Y-121000000D01*
X149926327Y-121204247D01*
X149682145Y-121569690D01*
X149596400Y-122000760D01*
X149682145Y-122431830D01*
X149926327Y-122797273D01*
X150131373Y-122934281D01*
X149818432Y-123170783D01*
X149572101Y-123590307D01*
X149556905Y-123682219D01*
X149681643Y-123872740D01*
X150873000Y-123872740D01*
X150873000Y-123852740D01*
X151127000Y-123852740D01*
X151127000Y-123872740D01*
X151147000Y-123872740D01*
X151147000Y-124126740D01*
X151127000Y-124126740D01*
X151127000Y-125081740D01*
X151322613Y-125244485D01*
X151793443Y-125122019D01*
X152181568Y-124828697D01*
X152398000Y-124460094D01*
X152398000Y-128809938D01*
X152272168Y-128506154D01*
X151898121Y-128281484D01*
X150179605Y-130000000D01*
X151898121Y-131718516D01*
X152272168Y-131493846D01*
X152398000Y-131183541D01*
X152398000Y-132398000D01*
X151190062Y-132398000D01*
X151493846Y-132272168D01*
X151718516Y-131898121D01*
X150000000Y-130179605D01*
X148281484Y-131898121D01*
X148506154Y-132272168D01*
X148816459Y-132398000D01*
X135285285Y-132398000D01*
X135574747Y-131964789D01*
X135680600Y-131432629D01*
X135680600Y-131067371D01*
X135574747Y-130535211D01*
X135273303Y-130084068D01*
X134822160Y-129782624D01*
X134658148Y-129750000D01*
X134822160Y-129717376D01*
X135273303Y-129415932D01*
X135574747Y-128964789D01*
X135680600Y-128432629D01*
X135680600Y-128067371D01*
X135574747Y-127535211D01*
X135273303Y-127084068D01*
X134822160Y-126782624D01*
X134658148Y-126750000D01*
X134822160Y-126717376D01*
X135273303Y-126415932D01*
X135574747Y-125964789D01*
X135680600Y-125432629D01*
X135680600Y-125067371D01*
X135630902Y-124817521D01*
X137556905Y-124817521D01*
X137572101Y-124909433D01*
X137818432Y-125328957D01*
X138131373Y-125565459D01*
X137926327Y-125702467D01*
X137682145Y-126067910D01*
X137596400Y-126498980D01*
X137682145Y-126930050D01*
X137926327Y-127295493D01*
X138232003Y-127499740D01*
X137926327Y-127703987D01*
X137682145Y-128069430D01*
X137596400Y-128500500D01*
X137682145Y-128931570D01*
X137926327Y-129297013D01*
X138055247Y-129383155D01*
X137955076Y-129402003D01*
X137775710Y-129517422D01*
X137655380Y-129693531D01*
X137613046Y-129902580D01*
X137613046Y-131101460D01*
X137649793Y-131296754D01*
X137765212Y-131476120D01*
X137941321Y-131596450D01*
X138150370Y-131638784D01*
X139849630Y-131638784D01*
X140044924Y-131602037D01*
X140224290Y-131486618D01*
X140344620Y-131310509D01*
X140386954Y-131101460D01*
X140386954Y-129902580D01*
X140350207Y-129707286D01*
X140234788Y-129527920D01*
X140178395Y-129489388D01*
X147329120Y-129489388D01*
X147337025Y-130550357D01*
X147727832Y-131493846D01*
X148101879Y-131718516D01*
X149820395Y-130000000D01*
X148101879Y-128281484D01*
X147727832Y-128506154D01*
X147329120Y-129489388D01*
X140178395Y-129489388D01*
X140058679Y-129407590D01*
X139943186Y-129384202D01*
X140073673Y-129297013D01*
X140317855Y-128931570D01*
X140403600Y-128500500D01*
X140324310Y-128101879D01*
X148281484Y-128101879D01*
X150000000Y-129820395D01*
X151718516Y-128101879D01*
X151493846Y-127727832D01*
X150510612Y-127329120D01*
X149449643Y-127337025D01*
X148506154Y-127727832D01*
X148281484Y-128101879D01*
X140324310Y-128101879D01*
X140317855Y-128069430D01*
X140073673Y-127703987D01*
X139767997Y-127499740D01*
X140073673Y-127295493D01*
X140317855Y-126930050D01*
X140403600Y-126498980D01*
X140317855Y-126067910D01*
X140073673Y-125702467D01*
X139868627Y-125565459D01*
X140181568Y-125328957D01*
X140427899Y-124909433D01*
X140443095Y-124817521D01*
X140318357Y-124627000D01*
X139127000Y-124627000D01*
X139127000Y-124647000D01*
X138873000Y-124647000D01*
X138873000Y-124627000D01*
X137681643Y-124627000D01*
X137556905Y-124817521D01*
X135630902Y-124817521D01*
X135574747Y-124535211D01*
X135273303Y-124084068D01*
X134822160Y-123782624D01*
X134658148Y-123750000D01*
X134822160Y-123717376D01*
X135273303Y-123415932D01*
X135574747Y-122964789D01*
X135680600Y-122432629D01*
X135680600Y-122067371D01*
X135574747Y-121535211D01*
X135567229Y-121523960D01*
X138192732Y-121523960D01*
X137926327Y-121701967D01*
X137682145Y-122067410D01*
X137596400Y-122498480D01*
X137682145Y-122929550D01*
X137926327Y-123294993D01*
X138133157Y-123433193D01*
X137818432Y-123671043D01*
X137572101Y-124090567D01*
X137556905Y-124182479D01*
X137681643Y-124373000D01*
X138873000Y-124373000D01*
X138873000Y-124353000D01*
X139127000Y-124353000D01*
X139127000Y-124373000D01*
X140318357Y-124373000D01*
X140354850Y-124317261D01*
X149556905Y-124317261D01*
X149572101Y-124409173D01*
X149818432Y-124828697D01*
X150206557Y-125122019D01*
X150677387Y-125244485D01*
X150873000Y-125081740D01*
X150873000Y-124126740D01*
X149681643Y-124126740D01*
X149556905Y-124317261D01*
X140354850Y-124317261D01*
X140443095Y-124182479D01*
X140427899Y-124090567D01*
X140181568Y-123671043D01*
X139866843Y-123433193D01*
X140073673Y-123294993D01*
X140317855Y-122929550D01*
X140403600Y-122498480D01*
X140317855Y-122067410D01*
X140073673Y-121701967D01*
X139767997Y-121497720D01*
X140073673Y-121293473D01*
X140317855Y-120928030D01*
X140403600Y-120496960D01*
X140317855Y-120065890D01*
X140073673Y-119700447D01*
X139708230Y-119456265D01*
X139277160Y-119370520D01*
X138722840Y-119370520D01*
X138291770Y-119456265D01*
X138271274Y-119469960D01*
X135922358Y-119469960D01*
X134726199Y-118273801D01*
X134726196Y-118273799D01*
X133277000Y-116824602D01*
X133277000Y-115777000D01*
X135214711Y-115777000D01*
X135334778Y-115826856D01*
X135663779Y-115827143D01*
X135967846Y-115701505D01*
X136200688Y-115469070D01*
X136326856Y-115165222D01*
X136327143Y-114836221D01*
X136201505Y-114532154D01*
X135969070Y-114299312D01*
X135692183Y-114184339D01*
X138453985Y-114184339D01*
X138500591Y-114231027D01*
X138804439Y-114357195D01*
X139133440Y-114357482D01*
X139437507Y-114231844D01*
X139670349Y-113999409D01*
X139796517Y-113695561D01*
X139796804Y-113366560D01*
X139763495Y-113285947D01*
X139956000Y-113206406D01*
X139956000Y-114577546D01*
X139782312Y-114750930D01*
X139656144Y-115054778D01*
X139655857Y-115383779D01*
X139781495Y-115687846D01*
X140013930Y-115920688D01*
X140317778Y-116046856D01*
X140646779Y-116047143D01*
X140950846Y-115921505D01*
X141183688Y-115689070D01*
X141309856Y-115385222D01*
X141309907Y-115327052D01*
X141413779Y-115327143D01*
X141717846Y-115201505D01*
X141791900Y-115127581D01*
X141813495Y-115179846D01*
X142045930Y-115412688D01*
X142349778Y-115538856D01*
X142678779Y-115539143D01*
X142982846Y-115413505D01*
X143215688Y-115181070D01*
X143341856Y-114877222D01*
X143342143Y-114548221D01*
X143216505Y-114244154D01*
X143169000Y-114196566D01*
X143169000Y-112446681D01*
X146618251Y-112446681D01*
X146766613Y-112805745D01*
X147041090Y-113080701D01*
X147399894Y-113229690D01*
X147788401Y-113230029D01*
X148147465Y-113081667D01*
X148422421Y-112807190D01*
X148571410Y-112448386D01*
X148571749Y-112059879D01*
X148423387Y-111700815D01*
X148148910Y-111425859D01*
X147790106Y-111276870D01*
X147401599Y-111276531D01*
X147042535Y-111424893D01*
X146767579Y-111699370D01*
X146618590Y-112058174D01*
X146618251Y-112446681D01*
X143169000Y-112446681D01*
X143169000Y-111015000D01*
X143119217Y-110764725D01*
X142977448Y-110552552D01*
X141212448Y-108787552D01*
X141000275Y-108645783D01*
X140750000Y-108596000D01*
X138515676Y-108596000D01*
X138469070Y-108549312D01*
X138165222Y-108423144D01*
X137836221Y-108422857D01*
X137532154Y-108548495D01*
X137299312Y-108780930D01*
X137173144Y-109084778D01*
X137172857Y-109413779D01*
X137298495Y-109717846D01*
X137330445Y-109749852D01*
X137299312Y-109780930D01*
X137173144Y-110084778D01*
X137172857Y-110413779D01*
X137298495Y-110717846D01*
X137518826Y-110938562D01*
X137497144Y-110990778D01*
X137496857Y-111319779D01*
X137622495Y-111623846D01*
X137844261Y-111846000D01*
X135727886Y-111846000D01*
X135701505Y-111782154D01*
X135469070Y-111549312D01*
X135165222Y-111423144D01*
X134836221Y-111422857D01*
X134532154Y-111548495D01*
X134299312Y-111780930D01*
X134294104Y-111793472D01*
X134279618Y-111778986D01*
X134326856Y-111665222D01*
X134327143Y-111336221D01*
X134201505Y-111032154D01*
X134169555Y-111000148D01*
X134200688Y-110969070D01*
X134326856Y-110665222D01*
X134326915Y-110597981D01*
X136877495Y-108047401D01*
X146618251Y-108047401D01*
X146766613Y-108406465D01*
X147041090Y-108681421D01*
X147399894Y-108830410D01*
X147788401Y-108830749D01*
X148147465Y-108682387D01*
X148422421Y-108407910D01*
X148571410Y-108049106D01*
X148571749Y-107660599D01*
X148423387Y-107301535D01*
X148148910Y-107026579D01*
X147790106Y-106877590D01*
X147401599Y-106877251D01*
X147042535Y-107025613D01*
X146767579Y-107300090D01*
X146618590Y-107658894D01*
X146618251Y-108047401D01*
X136877495Y-108047401D01*
X137270896Y-107654000D01*
X146000000Y-107654000D01*
X146250275Y-107604217D01*
X146462448Y-107462448D01*
X149973000Y-103951896D01*
X149973000Y-116894330D01*
X149973000Y-116894330D01*
G37*
X149973000Y-116894330D02*
X149955076Y-116897703D01*
X149775710Y-117013122D01*
X149655380Y-117189231D01*
X149613046Y-117398280D01*
X149613046Y-118597160D01*
X149649793Y-118792454D01*
X149765212Y-118971820D01*
X149941321Y-119092150D01*
X150056814Y-119115538D01*
X149926327Y-119202727D01*
X149682145Y-119568170D01*
X149596400Y-119999240D01*
X149682145Y-120430310D01*
X149926327Y-120795753D01*
X150232003Y-121000000D01*
X149926327Y-121204247D01*
X149682145Y-121569690D01*
X149596400Y-122000760D01*
X149682145Y-122431830D01*
X149926327Y-122797273D01*
X150131373Y-122934281D01*
X149818432Y-123170783D01*
X149572101Y-123590307D01*
X149556905Y-123682219D01*
X149681643Y-123872740D01*
X150873000Y-123872740D01*
X150873000Y-123852740D01*
X151127000Y-123852740D01*
X151127000Y-123872740D01*
X151147000Y-123872740D01*
X151147000Y-124126740D01*
X151127000Y-124126740D01*
X151127000Y-125081740D01*
X151322613Y-125244485D01*
X151793443Y-125122019D01*
X152181568Y-124828697D01*
X152398000Y-124460094D01*
X152398000Y-128809938D01*
X152272168Y-128506154D01*
X151898121Y-128281484D01*
X150179605Y-130000000D01*
X151898121Y-131718516D01*
X152272168Y-131493846D01*
X152398000Y-131183541D01*
X152398000Y-132398000D01*
X151190062Y-132398000D01*
X151493846Y-132272168D01*
X151718516Y-131898121D01*
X150000000Y-130179605D01*
X148281484Y-131898121D01*
X148506154Y-132272168D01*
X148816459Y-132398000D01*
X135285285Y-132398000D01*
X135574747Y-131964789D01*
X135680600Y-131432629D01*
X135680600Y-131067371D01*
X135574747Y-130535211D01*
X135273303Y-130084068D01*
X134822160Y-129782624D01*
X134658148Y-129750000D01*
X134822160Y-129717376D01*
X135273303Y-129415932D01*
X135574747Y-128964789D01*
X135680600Y-128432629D01*
X135680600Y-128067371D01*
X135574747Y-127535211D01*
X135273303Y-127084068D01*
X134822160Y-126782624D01*
X134658148Y-126750000D01*
X134822160Y-126717376D01*
X135273303Y-126415932D01*
X135574747Y-125964789D01*
X135680600Y-125432629D01*
X135680600Y-125067371D01*
X135630902Y-124817521D01*
X137556905Y-124817521D01*
X137572101Y-124909433D01*
X137818432Y-125328957D01*
X138131373Y-125565459D01*
X137926327Y-125702467D01*
X137682145Y-126067910D01*
X137596400Y-126498980D01*
X137682145Y-126930050D01*
X137926327Y-127295493D01*
X138232003Y-127499740D01*
X137926327Y-127703987D01*
X137682145Y-128069430D01*
X137596400Y-128500500D01*
X137682145Y-128931570D01*
X137926327Y-129297013D01*
X138055247Y-129383155D01*
X137955076Y-129402003D01*
X137775710Y-129517422D01*
X137655380Y-129693531D01*
X137613046Y-129902580D01*
X137613046Y-131101460D01*
X137649793Y-131296754D01*
X137765212Y-131476120D01*
X137941321Y-131596450D01*
X138150370Y-131638784D01*
X139849630Y-131638784D01*
X140044924Y-131602037D01*
X140224290Y-131486618D01*
X140344620Y-131310509D01*
X140386954Y-131101460D01*
X140386954Y-129902580D01*
X140350207Y-129707286D01*
X140234788Y-129527920D01*
X140178395Y-129489388D01*
X147329120Y-129489388D01*
X147337025Y-130550357D01*
X147727832Y-131493846D01*
X148101879Y-131718516D01*
X149820395Y-130000000D01*
X148101879Y-128281484D01*
X147727832Y-128506154D01*
X147329120Y-129489388D01*
X140178395Y-129489388D01*
X140058679Y-129407590D01*
X139943186Y-129384202D01*
X140073673Y-129297013D01*
X140317855Y-128931570D01*
X140403600Y-128500500D01*
X140324310Y-128101879D01*
X148281484Y-128101879D01*
X150000000Y-129820395D01*
X151718516Y-128101879D01*
X151493846Y-127727832D01*
X150510612Y-127329120D01*
X149449643Y-127337025D01*
X148506154Y-127727832D01*
X148281484Y-128101879D01*
X140324310Y-128101879D01*
X140317855Y-128069430D01*
X140073673Y-127703987D01*
X139767997Y-127499740D01*
X140073673Y-127295493D01*
X140317855Y-126930050D01*
X140403600Y-126498980D01*
X140317855Y-126067910D01*
X140073673Y-125702467D01*
X139868627Y-125565459D01*
X140181568Y-125328957D01*
X140427899Y-124909433D01*
X140443095Y-124817521D01*
X140318357Y-124627000D01*
X139127000Y-124627000D01*
X139127000Y-124647000D01*
X138873000Y-124647000D01*
X138873000Y-124627000D01*
X137681643Y-124627000D01*
X137556905Y-124817521D01*
X135630902Y-124817521D01*
X135574747Y-124535211D01*
X135273303Y-124084068D01*
X134822160Y-123782624D01*
X134658148Y-123750000D01*
X134822160Y-123717376D01*
X135273303Y-123415932D01*
X135574747Y-122964789D01*
X135680600Y-122432629D01*
X135680600Y-122067371D01*
X135574747Y-121535211D01*
X135567229Y-121523960D01*
X138192732Y-121523960D01*
X137926327Y-121701967D01*
X137682145Y-122067410D01*
X137596400Y-122498480D01*
X137682145Y-122929550D01*
X137926327Y-123294993D01*
X138133157Y-123433193D01*
X137818432Y-123671043D01*
X137572101Y-124090567D01*
X137556905Y-124182479D01*
X137681643Y-124373000D01*
X138873000Y-124373000D01*
X138873000Y-124353000D01*
X139127000Y-124353000D01*
X139127000Y-124373000D01*
X140318357Y-124373000D01*
X140354850Y-124317261D01*
X149556905Y-124317261D01*
X149572101Y-124409173D01*
X149818432Y-124828697D01*
X150206557Y-125122019D01*
X150677387Y-125244485D01*
X150873000Y-125081740D01*
X150873000Y-124126740D01*
X149681643Y-124126740D01*
X149556905Y-124317261D01*
X140354850Y-124317261D01*
X140443095Y-124182479D01*
X140427899Y-124090567D01*
X140181568Y-123671043D01*
X139866843Y-123433193D01*
X140073673Y-123294993D01*
X140317855Y-122929550D01*
X140403600Y-122498480D01*
X140317855Y-122067410D01*
X140073673Y-121701967D01*
X139767997Y-121497720D01*
X140073673Y-121293473D01*
X140317855Y-120928030D01*
X140403600Y-120496960D01*
X140317855Y-120065890D01*
X140073673Y-119700447D01*
X139708230Y-119456265D01*
X139277160Y-119370520D01*
X138722840Y-119370520D01*
X138291770Y-119456265D01*
X138271274Y-119469960D01*
X135922358Y-119469960D01*
X134726199Y-118273801D01*
X134726196Y-118273799D01*
X133277000Y-116824602D01*
X133277000Y-115777000D01*
X135214711Y-115777000D01*
X135334778Y-115826856D01*
X135663779Y-115827143D01*
X135967846Y-115701505D01*
X136200688Y-115469070D01*
X136326856Y-115165222D01*
X136327143Y-114836221D01*
X136201505Y-114532154D01*
X135969070Y-114299312D01*
X135692183Y-114184339D01*
X138453985Y-114184339D01*
X138500591Y-114231027D01*
X138804439Y-114357195D01*
X139133440Y-114357482D01*
X139437507Y-114231844D01*
X139670349Y-113999409D01*
X139796517Y-113695561D01*
X139796804Y-113366560D01*
X139763495Y-113285947D01*
X139956000Y-113206406D01*
X139956000Y-114577546D01*
X139782312Y-114750930D01*
X139656144Y-115054778D01*
X139655857Y-115383779D01*
X139781495Y-115687846D01*
X140013930Y-115920688D01*
X140317778Y-116046856D01*
X140646779Y-116047143D01*
X140950846Y-115921505D01*
X141183688Y-115689070D01*
X141309856Y-115385222D01*
X141309907Y-115327052D01*
X141413779Y-115327143D01*
X141717846Y-115201505D01*
X141791900Y-115127581D01*
X141813495Y-115179846D01*
X142045930Y-115412688D01*
X142349778Y-115538856D01*
X142678779Y-115539143D01*
X142982846Y-115413505D01*
X143215688Y-115181070D01*
X143341856Y-114877222D01*
X143342143Y-114548221D01*
X143216505Y-114244154D01*
X143169000Y-114196566D01*
X143169000Y-112446681D01*
X146618251Y-112446681D01*
X146766613Y-112805745D01*
X147041090Y-113080701D01*
X147399894Y-113229690D01*
X147788401Y-113230029D01*
X148147465Y-113081667D01*
X148422421Y-112807190D01*
X148571410Y-112448386D01*
X148571749Y-112059879D01*
X148423387Y-111700815D01*
X148148910Y-111425859D01*
X147790106Y-111276870D01*
X147401599Y-111276531D01*
X147042535Y-111424893D01*
X146767579Y-111699370D01*
X146618590Y-112058174D01*
X146618251Y-112446681D01*
X143169000Y-112446681D01*
X143169000Y-111015000D01*
X143119217Y-110764725D01*
X142977448Y-110552552D01*
X141212448Y-108787552D01*
X141000275Y-108645783D01*
X140750000Y-108596000D01*
X138515676Y-108596000D01*
X138469070Y-108549312D01*
X138165222Y-108423144D01*
X137836221Y-108422857D01*
X137532154Y-108548495D01*
X137299312Y-108780930D01*
X137173144Y-109084778D01*
X137172857Y-109413779D01*
X137298495Y-109717846D01*
X137330445Y-109749852D01*
X137299312Y-109780930D01*
X137173144Y-110084778D01*
X137172857Y-110413779D01*
X137298495Y-110717846D01*
X137518826Y-110938562D01*
X137497144Y-110990778D01*
X137496857Y-111319779D01*
X137622495Y-111623846D01*
X137844261Y-111846000D01*
X135727886Y-111846000D01*
X135701505Y-111782154D01*
X135469070Y-111549312D01*
X135165222Y-111423144D01*
X134836221Y-111422857D01*
X134532154Y-111548495D01*
X134299312Y-111780930D01*
X134294104Y-111793472D01*
X134279618Y-111778986D01*
X134326856Y-111665222D01*
X134327143Y-111336221D01*
X134201505Y-111032154D01*
X134169555Y-111000148D01*
X134200688Y-110969070D01*
X134326856Y-110665222D01*
X134326915Y-110597981D01*
X136877495Y-108047401D01*
X146618251Y-108047401D01*
X146766613Y-108406465D01*
X147041090Y-108681421D01*
X147399894Y-108830410D01*
X147788401Y-108830749D01*
X148147465Y-108682387D01*
X148422421Y-108407910D01*
X148571410Y-108049106D01*
X148571749Y-107660599D01*
X148423387Y-107301535D01*
X148148910Y-107026579D01*
X147790106Y-106877590D01*
X147401599Y-106877251D01*
X147042535Y-107025613D01*
X146767579Y-107300090D01*
X146618590Y-107658894D01*
X146618251Y-108047401D01*
X136877495Y-108047401D01*
X137270896Y-107654000D01*
X146000000Y-107654000D01*
X146250275Y-107604217D01*
X146462448Y-107462448D01*
X149973000Y-103951896D01*
X149973000Y-116894330D01*
G36*
X104506154Y-83727832D02*
X104281484Y-84101879D01*
X106000000Y-85820395D01*
X107718516Y-84101879D01*
X107493846Y-83727832D01*
X107183541Y-83602000D01*
X111062828Y-83602000D01*
X111038582Y-83612043D01*
X110859953Y-83790671D01*
X110763280Y-84024060D01*
X110763280Y-84714250D01*
X110922030Y-84873000D01*
X111870720Y-84873000D01*
X111870720Y-84853000D01*
X112124720Y-84853000D01*
X112124720Y-84873000D01*
X112144720Y-84873000D01*
X112144720Y-85127000D01*
X112124720Y-85127000D01*
X112124720Y-86325880D01*
X112283470Y-86484630D01*
X112723469Y-86484630D01*
X112956858Y-86387957D01*
X112972240Y-86372575D01*
X112972240Y-91113362D01*
X112959801Y-91125801D01*
X112737176Y-91458984D01*
X112659000Y-91852000D01*
X112737176Y-92245016D01*
X112959801Y-92578199D01*
X113292984Y-92800824D01*
X113686000Y-92879000D01*
X114079016Y-92800824D01*
X114172251Y-92738527D01*
X114172251Y-98625351D01*
X110073800Y-102723802D01*
X110073798Y-102723805D01*
X109773801Y-103023801D01*
X109551176Y-103356984D01*
X109473000Y-103750000D01*
X109551176Y-104143016D01*
X109773801Y-104476199D01*
X110106984Y-104698824D01*
X110500000Y-104777000D01*
X110893016Y-104698824D01*
X111226199Y-104476199D01*
X111526195Y-104176202D01*
X111526198Y-104176200D01*
X115925450Y-99776948D01*
X115974588Y-99703408D01*
X116148075Y-99443765D01*
X116192770Y-99219070D01*
X116226252Y-99050749D01*
X116226251Y-99050744D01*
X116226251Y-92726147D01*
X117851196Y-91101201D01*
X117851199Y-91101199D01*
X120675397Y-88277000D01*
X134574602Y-88277000D01*
X142521519Y-96223916D01*
X142521521Y-96223919D01*
X142594548Y-96272714D01*
X142532154Y-96298495D01*
X142299312Y-96530930D01*
X142173144Y-96834778D01*
X142172857Y-97163779D01*
X142298495Y-97467846D01*
X142346000Y-97515434D01*
X142346000Y-98250000D01*
X142395783Y-98500275D01*
X142537552Y-98712448D01*
X143663575Y-99838471D01*
X143682145Y-99931830D01*
X143926327Y-100297273D01*
X144131373Y-100434281D01*
X143818432Y-100670783D01*
X143572101Y-101090307D01*
X143556905Y-101182219D01*
X143681643Y-101372740D01*
X144873000Y-101372740D01*
X144873000Y-101352740D01*
X145127000Y-101352740D01*
X145127000Y-101372740D01*
X146318357Y-101372740D01*
X146443095Y-101182219D01*
X146427899Y-101090307D01*
X146181568Y-100670783D01*
X145868627Y-100434281D01*
X146073673Y-100297273D01*
X146317855Y-99931830D01*
X146403600Y-99500760D01*
X146317855Y-99069690D01*
X146073673Y-98704247D01*
X145767997Y-98500000D01*
X146073673Y-98295753D01*
X146317855Y-97930310D01*
X146403600Y-97499240D01*
X146317855Y-97068170D01*
X146073673Y-96702727D01*
X145944753Y-96616585D01*
X146044924Y-96597737D01*
X146224290Y-96482318D01*
X146344620Y-96306209D01*
X146386954Y-96097160D01*
X146386954Y-94898280D01*
X146350207Y-94702986D01*
X146234788Y-94523620D01*
X146058679Y-94403290D01*
X145849630Y-94360956D01*
X144150370Y-94360956D01*
X143955076Y-94397703D01*
X143841604Y-94470720D01*
X143673117Y-94470720D01*
X139972849Y-90770451D01*
X149515370Y-90770451D01*
X149515370Y-91210450D01*
X149674120Y-91369200D01*
X150873000Y-91369200D01*
X150873000Y-90420510D01*
X150714250Y-90261760D01*
X150024060Y-90261760D01*
X149790671Y-90358433D01*
X149612043Y-90537062D01*
X149515370Y-90770451D01*
X139972849Y-90770451D01*
X135726199Y-86523801D01*
X135393016Y-86301176D01*
X135000000Y-86223000D01*
X134574290Y-86223000D01*
X134797773Y-86073673D01*
X134996004Y-85777000D01*
X137723000Y-85777000D01*
X137723000Y-86964711D01*
X137673144Y-87084778D01*
X137672857Y-87413779D01*
X137798495Y-87717846D01*
X138030930Y-87950688D01*
X138334778Y-88076856D01*
X138663779Y-88077143D01*
X138967846Y-87951505D01*
X139200688Y-87719070D01*
X139326856Y-87415222D01*
X139327143Y-87086221D01*
X139277000Y-86964866D01*
X139277000Y-85777000D01*
X145723000Y-85777000D01*
X145723000Y-87581992D01*
X145782146Y-87879337D01*
X145950578Y-88131414D01*
X146081857Y-88262693D01*
X146131503Y-88382846D01*
X146363938Y-88615688D01*
X146667786Y-88741856D01*
X146996787Y-88742143D01*
X147300854Y-88616505D01*
X147533696Y-88384070D01*
X147659864Y-88080222D01*
X147660022Y-87898121D01*
X148281484Y-87898121D01*
X148506154Y-88272168D01*
X149489388Y-88670880D01*
X150550357Y-88662975D01*
X151493846Y-88272168D01*
X151718516Y-87898121D01*
X150000000Y-86179605D01*
X148281484Y-87898121D01*
X147660022Y-87898121D01*
X147660151Y-87751221D01*
X147534513Y-87447154D01*
X147302078Y-87214312D01*
X147277000Y-87203899D01*
X147277000Y-85489388D01*
X147329120Y-85489388D01*
X147337025Y-86550357D01*
X147727832Y-87493846D01*
X148101879Y-87718516D01*
X149820395Y-86000000D01*
X148101879Y-84281484D01*
X147727832Y-84506154D01*
X147329120Y-85489388D01*
X147277000Y-85489388D01*
X147277000Y-85197360D01*
X147300850Y-85187505D01*
X147533692Y-84955070D01*
X147659860Y-84651222D01*
X147660147Y-84322221D01*
X147534509Y-84018154D01*
X147302074Y-83785312D01*
X146998226Y-83659144D01*
X146669225Y-83658857D01*
X146365158Y-83784495D01*
X146132316Y-84016930D01*
X146081961Y-84138199D01*
X145997160Y-84223000D01*
X134996004Y-84223000D01*
X134797773Y-83926327D01*
X134432330Y-83682145D01*
X134029413Y-83602000D01*
X148809938Y-83602000D01*
X148506154Y-83727832D01*
X148281484Y-84101879D01*
X150000000Y-85820395D01*
X151718516Y-84101879D01*
X151493846Y-83727832D01*
X151183541Y-83602000D01*
X152398000Y-83602000D01*
X152398000Y-84809938D01*
X152272168Y-84506154D01*
X151898121Y-84281484D01*
X150179605Y-86000000D01*
X151898121Y-87718516D01*
X152272168Y-87493846D01*
X152398000Y-87183541D01*
X152398000Y-90561308D01*
X152387957Y-90537062D01*
X152209329Y-90358433D01*
X151975940Y-90261760D01*
X151285750Y-90261760D01*
X151127000Y-90420510D01*
X151127000Y-91369200D01*
X151147000Y-91369200D01*
X151147000Y-91623200D01*
X151127000Y-91623200D01*
X151127000Y-91643200D01*
X150873000Y-91643200D01*
X150873000Y-91623200D01*
X149674120Y-91623200D01*
X149515370Y-91781950D01*
X149515370Y-92221949D01*
X149612043Y-92455338D01*
X149790671Y-92633967D01*
X149936535Y-92694386D01*
X149926327Y-92701207D01*
X149829579Y-92846000D01*
X149750000Y-92846000D01*
X149499725Y-92895783D01*
X149287552Y-93037552D01*
X147787552Y-94537552D01*
X147645783Y-94749725D01*
X147596000Y-95000000D01*
X147596000Y-102229104D01*
X144979104Y-104846000D01*
X135500000Y-104846000D01*
X135249725Y-104895783D01*
X135037552Y-105037552D01*
X133402189Y-106672915D01*
X133336221Y-106672857D01*
X133277000Y-106697327D01*
X133277000Y-103221901D01*
X133393016Y-103198824D01*
X133726199Y-102976199D01*
X134885136Y-101817261D01*
X143556905Y-101817261D01*
X143572101Y-101909173D01*
X143818432Y-102328697D01*
X144206557Y-102622019D01*
X144677387Y-102744485D01*
X144873000Y-102581740D01*
X144873000Y-101626740D01*
X145127000Y-101626740D01*
X145127000Y-102581740D01*
X145322613Y-102744485D01*
X145793443Y-102622019D01*
X146181568Y-102328697D01*
X146427899Y-101909173D01*
X146443095Y-101817261D01*
X146318357Y-101626740D01*
X145127000Y-101626740D01*
X144873000Y-101626740D01*
X143681643Y-101626740D01*
X143556905Y-101817261D01*
X134885136Y-101817261D01*
X136476196Y-100226201D01*
X136476199Y-100226199D01*
X136698824Y-99893016D01*
X136777000Y-99500000D01*
X136777000Y-99404000D01*
X138729104Y-99404000D01*
X139172915Y-99847811D01*
X139172857Y-99913779D01*
X139298495Y-100217846D01*
X139530930Y-100450688D01*
X139834778Y-100576856D01*
X140163779Y-100577143D01*
X140467846Y-100451505D01*
X140700688Y-100219070D01*
X140826856Y-99915222D01*
X140827143Y-99586221D01*
X140701505Y-99282154D01*
X140469070Y-99049312D01*
X140165222Y-98923144D01*
X140097981Y-98923085D01*
X139462448Y-98287552D01*
X139250275Y-98145783D01*
X139000000Y-98096000D01*
X136777000Y-98096000D01*
X136777000Y-96750000D01*
X136698824Y-96356984D01*
X136476199Y-96023801D01*
X136143016Y-95801176D01*
X135750000Y-95723000D01*
X135356984Y-95801176D01*
X135023801Y-96023801D01*
X134801176Y-96356984D01*
X134723000Y-96750000D01*
X134723000Y-99074603D01*
X132574602Y-101223000D01*
X130277024Y-101223000D01*
X130277134Y-101096123D01*
X130159092Y-100810440D01*
X129940710Y-100591676D01*
X129655233Y-100473135D01*
X129654000Y-100473134D01*
X129654000Y-93020896D01*
X131097811Y-91577085D01*
X131163779Y-91577143D01*
X131467846Y-91451505D01*
X131700688Y-91219070D01*
X131826856Y-90915222D01*
X131827143Y-90586221D01*
X131701505Y-90282154D01*
X131469070Y-90049312D01*
X131165222Y-89923144D01*
X130836221Y-89922857D01*
X130532154Y-90048495D01*
X130500148Y-90080445D01*
X130469070Y-90049312D01*
X130165222Y-89923144D01*
X129836221Y-89922857D01*
X129532154Y-90048495D01*
X129500148Y-90080445D01*
X129469070Y-90049312D01*
X129165222Y-89923144D01*
X128836221Y-89922857D01*
X128532154Y-90048495D01*
X128500148Y-90080445D01*
X128469070Y-90049312D01*
X128165222Y-89923144D01*
X127836221Y-89922857D01*
X127532154Y-90048495D01*
X127299312Y-90280930D01*
X127173144Y-90584778D01*
X127173085Y-90652019D01*
X127037552Y-90787552D01*
X126895783Y-90999725D01*
X126846000Y-91250000D01*
X126846000Y-92168069D01*
X126603221Y-92167857D01*
X126527000Y-92199351D01*
X126527000Y-90035289D01*
X126576856Y-89915222D01*
X126577143Y-89586221D01*
X126451505Y-89282154D01*
X126219070Y-89049312D01*
X125915222Y-88923144D01*
X125586221Y-88922857D01*
X125282154Y-89048495D01*
X125049312Y-89280930D01*
X124923144Y-89584778D01*
X124922857Y-89913779D01*
X124973000Y-90035134D01*
X124973000Y-96178156D01*
X124950579Y-96200577D01*
X124782147Y-96452654D01*
X124723001Y-96749999D01*
X124723001Y-97602821D01*
X124782147Y-97900166D01*
X124950579Y-98152243D01*
X125220170Y-98421834D01*
X125220170Y-99930986D01*
X125200578Y-99950578D01*
X125032146Y-100202655D01*
X124973000Y-100500000D01*
X124973000Y-101223000D01*
X123404000Y-101223000D01*
X123404000Y-99763000D01*
X123354217Y-99512725D01*
X123212448Y-99300552D01*
X122620085Y-98708189D01*
X122620143Y-98642221D01*
X122494505Y-98338154D01*
X122262070Y-98105312D01*
X121958222Y-97979144D01*
X121629221Y-97978857D01*
X121325154Y-98104495D01*
X121092312Y-98336930D01*
X120966144Y-98640778D01*
X120965857Y-98969779D01*
X121091495Y-99273846D01*
X121323930Y-99506688D01*
X121627778Y-99632856D01*
X121695019Y-99632915D01*
X122096000Y-100033896D01*
X122096000Y-101223000D01*
X117750000Y-101223000D01*
X117356984Y-101301176D01*
X117023801Y-101523801D01*
X116801176Y-101856984D01*
X116723000Y-102250000D01*
X116801176Y-102643016D01*
X117023801Y-102976199D01*
X117356984Y-103198824D01*
X117750000Y-103277000D01*
X124473000Y-103277000D01*
X124473000Y-103500000D01*
X124532146Y-103797345D01*
X124700578Y-104049422D01*
X124973000Y-104321844D01*
X124973000Y-110901000D01*
X124974000Y-110906027D01*
X124974000Y-111677156D01*
X123678156Y-112973000D01*
X121285289Y-112973000D01*
X121165222Y-112923144D01*
X120836221Y-112922857D01*
X120532154Y-113048495D01*
X120299312Y-113280930D01*
X120173144Y-113584778D01*
X120172857Y-113913779D01*
X120298495Y-114217846D01*
X120530930Y-114450688D01*
X120834778Y-114576856D01*
X121163779Y-114577143D01*
X121285134Y-114527000D01*
X123548104Y-114527000D01*
X122287552Y-115787552D01*
X122145783Y-115999725D01*
X122096000Y-116250000D01*
X122096000Y-119484324D01*
X122049312Y-119530930D01*
X122029952Y-119577554D01*
X120777000Y-118324602D01*
X120777000Y-115500005D01*
X120777001Y-115500000D01*
X120698825Y-115106985D01*
X120575986Y-114923144D01*
X120476199Y-114773801D01*
X120476196Y-114773799D01*
X118226199Y-112523801D01*
X117893016Y-112301176D01*
X117500000Y-112223000D01*
X112925398Y-112223000D01*
X112356398Y-111654000D01*
X121772114Y-111654000D01*
X121798495Y-111717846D01*
X122030930Y-111950688D01*
X122334778Y-112076856D01*
X122663779Y-112077143D01*
X122967846Y-111951505D01*
X123020164Y-111899279D01*
X123048495Y-111967846D01*
X123280930Y-112200688D01*
X123584778Y-112326856D01*
X123913779Y-112327143D01*
X124217846Y-112201505D01*
X124450688Y-111969070D01*
X124576856Y-111665222D01*
X124577143Y-111336221D01*
X124451505Y-111032154D01*
X124419555Y-111000148D01*
X124450688Y-110969070D01*
X124576856Y-110665222D01*
X124577143Y-110336221D01*
X124451505Y-110032154D01*
X124419555Y-110000148D01*
X124450688Y-109969070D01*
X124576856Y-109665222D01*
X124577143Y-109336221D01*
X124451505Y-109032154D01*
X124419555Y-109000148D01*
X124450688Y-108969070D01*
X124576856Y-108665222D01*
X124577143Y-108336221D01*
X124451505Y-108032154D01*
X124419555Y-108000148D01*
X124450688Y-107969070D01*
X124576856Y-107665222D01*
X124577143Y-107336221D01*
X124451505Y-107032154D01*
X124419555Y-107000148D01*
X124450688Y-106969070D01*
X124576856Y-106665222D01*
X124577143Y-106336221D01*
X124451505Y-106032154D01*
X124419555Y-106000148D01*
X124450688Y-105969070D01*
X124576856Y-105665222D01*
X124577143Y-105336221D01*
X124451505Y-105032154D01*
X124219070Y-104799312D01*
X123915222Y-104673144D01*
X123586221Y-104672857D01*
X123282154Y-104798495D01*
X123049312Y-105030930D01*
X122923144Y-105334778D01*
X122923085Y-105402019D01*
X121479104Y-106846000D01*
X101270896Y-106846000D01*
X99904000Y-105479104D01*
X99904000Y-103413779D01*
X101172857Y-103413779D01*
X101298495Y-103717846D01*
X101530930Y-103950688D01*
X101834778Y-104076856D01*
X102163779Y-104077143D01*
X102467846Y-103951505D01*
X102515434Y-103904000D01*
X104500000Y-103904000D01*
X104750275Y-103854217D01*
X104962448Y-103712448D01*
X108347811Y-100327085D01*
X108413779Y-100327143D01*
X108717846Y-100201505D01*
X108950688Y-99969070D01*
X109076856Y-99665222D01*
X109077143Y-99336221D01*
X108951505Y-99032154D01*
X108719070Y-98799312D01*
X108415222Y-98673144D01*
X108086221Y-98672857D01*
X107782154Y-98798495D01*
X107549312Y-99030930D01*
X107423144Y-99334778D01*
X107423085Y-99402019D01*
X104229104Y-102596000D01*
X102515676Y-102596000D01*
X102469070Y-102549312D01*
X102165222Y-102423144D01*
X101836221Y-102422857D01*
X101532154Y-102548495D01*
X101299312Y-102780930D01*
X101173144Y-103084778D01*
X101172857Y-103413779D01*
X99904000Y-103413779D01*
X99904000Y-95750000D01*
X99854217Y-95499725D01*
X99712448Y-95287552D01*
X97074770Y-92649874D01*
X96969286Y-92579392D01*
X96863674Y-92508552D01*
X96863091Y-92508435D01*
X96862597Y-92508105D01*
X96738085Y-92483338D01*
X96613488Y-92458323D01*
X96526113Y-92458167D01*
X96360653Y-92210539D01*
X95942471Y-91931119D01*
X95449192Y-91833000D01*
X95092808Y-91833000D01*
X94599529Y-91931119D01*
X94181347Y-92210539D01*
X93901927Y-92628721D01*
X93803808Y-93122000D01*
X93901927Y-93615279D01*
X94181347Y-94033461D01*
X94599529Y-94312881D01*
X94997288Y-94392000D01*
X94599529Y-94471119D01*
X94181347Y-94750539D01*
X93901927Y-95168721D01*
X93803808Y-95662000D01*
X93901927Y-96155279D01*
X94181347Y-96573461D01*
X94599529Y-96852881D01*
X94997288Y-96932000D01*
X94599529Y-97011119D01*
X94181347Y-97290539D01*
X93901927Y-97708721D01*
X93803808Y-98202000D01*
X93901927Y-98695279D01*
X94181347Y-99113461D01*
X94599529Y-99392881D01*
X94997288Y-99472000D01*
X94599529Y-99551119D01*
X94181347Y-99830539D01*
X93901927Y-100248721D01*
X93803808Y-100742000D01*
X93901927Y-101235279D01*
X94181347Y-101653461D01*
X94599529Y-101932881D01*
X94997288Y-102012000D01*
X94599529Y-102091119D01*
X94181347Y-102370539D01*
X93901927Y-102788721D01*
X93803808Y-103282000D01*
X93901927Y-103775279D01*
X94181347Y-104193461D01*
X94599529Y-104472881D01*
X94997288Y-104552000D01*
X94599529Y-104631119D01*
X94181347Y-104910539D01*
X93901927Y-105328721D01*
X93803808Y-105822000D01*
X93901927Y-106315279D01*
X94181347Y-106733461D01*
X94599529Y-107012881D01*
X94997288Y-107092000D01*
X94599529Y-107171119D01*
X94181347Y-107450539D01*
X93901927Y-107868721D01*
X93803808Y-108362000D01*
X93901927Y-108855279D01*
X94181347Y-109273461D01*
X94599529Y-109552881D01*
X94997288Y-109632000D01*
X94599529Y-109711119D01*
X94181347Y-109990539D01*
X93901927Y-110408721D01*
X93803808Y-110902000D01*
X93901927Y-111395279D01*
X94181347Y-111813461D01*
X94599529Y-112092881D01*
X95092808Y-112191000D01*
X95449192Y-112191000D01*
X95942471Y-112092881D01*
X96360653Y-111813461D01*
X96540701Y-111544000D01*
X98909604Y-111544000D01*
X98999725Y-111604217D01*
X99250000Y-111654000D01*
X110291824Y-111654000D01*
X110223000Y-112000000D01*
X110301176Y-112393016D01*
X110523801Y-112726199D01*
X111773801Y-113976199D01*
X112106984Y-114198824D01*
X112500000Y-114277001D01*
X112500005Y-114277000D01*
X117074602Y-114277000D01*
X118723000Y-115925397D01*
X118723000Y-118750000D01*
X118801176Y-119143016D01*
X119023801Y-119476199D01*
X120196176Y-120648574D01*
X120087000Y-120757750D01*
X120087000Y-122123000D01*
X120107000Y-122123000D01*
X120107000Y-122377000D01*
X120087000Y-122377000D01*
X120087000Y-123742250D01*
X120094750Y-123750000D01*
X120087000Y-123757750D01*
X120087000Y-125123000D01*
X120107000Y-125123000D01*
X120107000Y-125377000D01*
X120087000Y-125377000D01*
X120087000Y-126742250D01*
X120094750Y-126750000D01*
X120087000Y-126757750D01*
X120087000Y-128123000D01*
X120107000Y-128123000D01*
X120107000Y-128377000D01*
X120087000Y-128377000D01*
X120087000Y-128397000D01*
X119833000Y-128397000D01*
X119833000Y-128377000D01*
X118620150Y-128377000D01*
X118461400Y-128535750D01*
X118461400Y-128973000D01*
X117069261Y-128973000D01*
X117074747Y-128964789D01*
X117180600Y-128432629D01*
X117180600Y-128067371D01*
X117074747Y-127535211D01*
X116773303Y-127084068D01*
X116322160Y-126782624D01*
X116158148Y-126750000D01*
X116322160Y-126717376D01*
X116773303Y-126415932D01*
X117074747Y-125964789D01*
X117160087Y-125535750D01*
X118461400Y-125535750D01*
X118461400Y-126392310D01*
X118558073Y-126625699D01*
X118682375Y-126750000D01*
X118558073Y-126874301D01*
X118461400Y-127107690D01*
X118461400Y-127964250D01*
X118620150Y-128123000D01*
X119833000Y-128123000D01*
X119833000Y-126757750D01*
X119825250Y-126750000D01*
X119833000Y-126742250D01*
X119833000Y-125377000D01*
X118620150Y-125377000D01*
X118461400Y-125535750D01*
X117160087Y-125535750D01*
X117180600Y-125432629D01*
X117180600Y-125067371D01*
X117074747Y-124535211D01*
X116773303Y-124084068D01*
X116322160Y-123782624D01*
X116158148Y-123750000D01*
X116322160Y-123717376D01*
X116773303Y-123415932D01*
X117074747Y-122964789D01*
X117160087Y-122535750D01*
X118461400Y-122535750D01*
X118461400Y-123392310D01*
X118558073Y-123625699D01*
X118682375Y-123750000D01*
X118558073Y-123874301D01*
X118461400Y-124107690D01*
X118461400Y-124964250D01*
X118620150Y-125123000D01*
X119833000Y-125123000D01*
X119833000Y-123757750D01*
X119825250Y-123750000D01*
X119833000Y-123742250D01*
X119833000Y-122377000D01*
X118620150Y-122377000D01*
X118461400Y-122535750D01*
X117160087Y-122535750D01*
X117180600Y-122432629D01*
X117180600Y-122067371D01*
X117074747Y-121535211D01*
X116789087Y-121107690D01*
X118461400Y-121107690D01*
X118461400Y-121964250D01*
X118620150Y-122123000D01*
X119833000Y-122123000D01*
X119833000Y-120757750D01*
X119674250Y-120599000D01*
X118970091Y-120599000D01*
X118736702Y-120695673D01*
X118558073Y-120874301D01*
X118461400Y-121107690D01*
X116789087Y-121107690D01*
X116773303Y-121084068D01*
X116503812Y-120904000D01*
X117250000Y-120904000D01*
X117500275Y-120854217D01*
X117712448Y-120712448D01*
X118212448Y-120212448D01*
X118354217Y-120000275D01*
X118404000Y-119750000D01*
X118404000Y-118265676D01*
X118450688Y-118219070D01*
X118576856Y-117915222D01*
X118577143Y-117586221D01*
X118451505Y-117282154D01*
X118219070Y-117049312D01*
X117915222Y-116923144D01*
X117586221Y-116922857D01*
X117357708Y-117017277D01*
X117354217Y-116999725D01*
X117212448Y-116787552D01*
X116654000Y-116229104D01*
X116654000Y-115765676D01*
X116700688Y-115719070D01*
X116826856Y-115415222D01*
X116827143Y-115086221D01*
X116701505Y-114782154D01*
X116469070Y-114549312D01*
X116165222Y-114423144D01*
X115836221Y-114422857D01*
X115532154Y-114548495D01*
X115299312Y-114780930D01*
X115173144Y-115084778D01*
X115172857Y-115413779D01*
X115298495Y-115717846D01*
X115346000Y-115765434D01*
X115346000Y-116500000D01*
X115395783Y-116750275D01*
X115537552Y-116962448D01*
X116096000Y-117520896D01*
X116096000Y-117998209D01*
X115915222Y-117923144D01*
X115586221Y-117922857D01*
X115282154Y-118048495D01*
X115234566Y-118096000D01*
X113750000Y-118096000D01*
X113499725Y-118145783D01*
X113287552Y-118287552D01*
X112729104Y-118846000D01*
X110000000Y-118846000D01*
X109749725Y-118895783D01*
X109537552Y-119037552D01*
X107787552Y-120787552D01*
X107645783Y-120999725D01*
X107596000Y-121250000D01*
X107596000Y-121984324D01*
X107549312Y-122030930D01*
X107527000Y-122084664D01*
X107527000Y-117535289D01*
X107576856Y-117415222D01*
X107577143Y-117086221D01*
X107527000Y-116964866D01*
X107527000Y-114285289D01*
X107576856Y-114165222D01*
X107577143Y-113836221D01*
X107451505Y-113532154D01*
X107219070Y-113299312D01*
X106915222Y-113173144D01*
X106586221Y-113172857D01*
X106282154Y-113298495D01*
X106049312Y-113530930D01*
X105923144Y-113834778D01*
X105922857Y-114163779D01*
X105973000Y-114285134D01*
X105973000Y-116473000D01*
X104277000Y-116473000D01*
X104277000Y-116000000D01*
X104217854Y-115702655D01*
X104049422Y-115450578D01*
X104001151Y-115402307D01*
X103951505Y-115282154D01*
X103719070Y-115049312D01*
X103415222Y-114923144D01*
X103086221Y-114922857D01*
X102782154Y-115048495D01*
X102549312Y-115280930D01*
X102423144Y-115584778D01*
X102422857Y-115913779D01*
X102548495Y-116217846D01*
X102723000Y-116392657D01*
X102723000Y-116473000D01*
X100321844Y-116473000D01*
X99751151Y-115902307D01*
X99701505Y-115782154D01*
X99469070Y-115549312D01*
X99165222Y-115423144D01*
X98836221Y-115422857D01*
X98532154Y-115548495D01*
X98299312Y-115780930D01*
X98173144Y-116084778D01*
X98172857Y-116413779D01*
X98298495Y-116717846D01*
X98530930Y-116950688D01*
X98652199Y-117001043D01*
X99450578Y-117799422D01*
X99702655Y-117967854D01*
X100000000Y-118027000D01*
X105973000Y-118027000D01*
X105973000Y-121924136D01*
X102428156Y-125468980D01*
X102317824Y-125468980D01*
X100251151Y-123402307D01*
X100201505Y-123282154D01*
X99969070Y-123049312D01*
X99665222Y-122923144D01*
X99336221Y-122922857D01*
X99032154Y-123048495D01*
X98799312Y-123280930D01*
X98673144Y-123584778D01*
X98672857Y-123913779D01*
X98798495Y-124217846D01*
X99030930Y-124450688D01*
X99152199Y-124501043D01*
X101446558Y-126795402D01*
X101698635Y-126963834D01*
X101995980Y-127022980D01*
X102464711Y-127022980D01*
X102584778Y-127072836D01*
X102913779Y-127073123D01*
X103217846Y-126947485D01*
X103450688Y-126715050D01*
X103501043Y-126593781D01*
X104559074Y-125535750D01*
X109211400Y-125535750D01*
X109211400Y-126392310D01*
X109308073Y-126625699D01*
X109432375Y-126750000D01*
X109308073Y-126874301D01*
X109211400Y-127107690D01*
X109211400Y-127964250D01*
X109370150Y-128123000D01*
X110583000Y-128123000D01*
X110583000Y-126757750D01*
X110575250Y-126750000D01*
X110583000Y-126742250D01*
X110583000Y-125377000D01*
X109370150Y-125377000D01*
X109211400Y-125535750D01*
X104559074Y-125535750D01*
X106675251Y-123419573D01*
X106798495Y-123717846D01*
X107030930Y-123950688D01*
X107334778Y-124076856D01*
X107663779Y-124077143D01*
X107967846Y-123951505D01*
X108015434Y-123904000D01*
X108750000Y-123904000D01*
X109000275Y-123854217D01*
X109212448Y-123712448D01*
X109305473Y-123619423D01*
X109308073Y-123625699D01*
X109432375Y-123750000D01*
X109308073Y-123874301D01*
X109211400Y-124107690D01*
X109211400Y-124964250D01*
X109370150Y-125123000D01*
X110583000Y-125123000D01*
X110583000Y-123757750D01*
X110575250Y-123750000D01*
X110583000Y-123742250D01*
X110583000Y-122377000D01*
X110563000Y-122377000D01*
X110563000Y-122123000D01*
X110583000Y-122123000D01*
X110583000Y-122103000D01*
X110837000Y-122103000D01*
X110837000Y-122123000D01*
X110857000Y-122123000D01*
X110857000Y-122377000D01*
X110837000Y-122377000D01*
X110837000Y-123742250D01*
X110844750Y-123750000D01*
X110837000Y-123757750D01*
X110837000Y-125123000D01*
X110857000Y-125123000D01*
X110857000Y-125377000D01*
X110837000Y-125377000D01*
X110837000Y-126742250D01*
X110844750Y-126750000D01*
X110837000Y-126757750D01*
X110837000Y-128123000D01*
X110857000Y-128123000D01*
X110857000Y-128377000D01*
X110837000Y-128377000D01*
X110837000Y-129742250D01*
X110844750Y-129750000D01*
X110837000Y-129757750D01*
X110837000Y-131123000D01*
X110857000Y-131123000D01*
X110857000Y-131377000D01*
X110837000Y-131377000D01*
X110837000Y-131397000D01*
X110583000Y-131397000D01*
X110583000Y-131377000D01*
X109370150Y-131377000D01*
X109211400Y-131535750D01*
X109211400Y-132392310D01*
X109213757Y-132398000D01*
X107190062Y-132398000D01*
X107493846Y-132272168D01*
X107718516Y-131898121D01*
X106000000Y-130179605D01*
X104281484Y-131898121D01*
X104506154Y-132272168D01*
X104816459Y-132398000D01*
X86602000Y-132398000D01*
X86602000Y-131340225D01*
X88355581Y-131340225D01*
X88472601Y-131622646D01*
X89136663Y-131874218D01*
X89846448Y-131852514D01*
X90401399Y-131622646D01*
X90518419Y-131340225D01*
X93435581Y-131340225D01*
X93552601Y-131622646D01*
X94216663Y-131874218D01*
X94926448Y-131852514D01*
X95481399Y-131622646D01*
X95598419Y-131340225D01*
X94517000Y-130258805D01*
X93435581Y-131340225D01*
X90518419Y-131340225D01*
X89437000Y-130258805D01*
X88355581Y-131340225D01*
X86602000Y-131340225D01*
X86602000Y-129778863D01*
X87641982Y-129778863D01*
X87663686Y-130488648D01*
X87893554Y-131043599D01*
X88175975Y-131160619D01*
X89257395Y-130079200D01*
X89616605Y-130079200D01*
X90698025Y-131160619D01*
X90980446Y-131043599D01*
X91232018Y-130379537D01*
X91213651Y-129778863D01*
X92721982Y-129778863D01*
X92743686Y-130488648D01*
X92973554Y-131043599D01*
X93255975Y-131160619D01*
X94337395Y-130079200D01*
X94696605Y-130079200D01*
X95778025Y-131160619D01*
X96060446Y-131043599D01*
X96312018Y-130379537D01*
X96290314Y-129669752D01*
X96215605Y-129489388D01*
X103329120Y-129489388D01*
X103337025Y-130550357D01*
X103727832Y-131493846D01*
X104101879Y-131718516D01*
X105820395Y-130000000D01*
X106179605Y-130000000D01*
X107898121Y-131718516D01*
X108272168Y-131493846D01*
X108670880Y-130510612D01*
X108662975Y-129449643D01*
X108284428Y-128535750D01*
X109211400Y-128535750D01*
X109211400Y-129392310D01*
X109308073Y-129625699D01*
X109432375Y-129750000D01*
X109308073Y-129874301D01*
X109211400Y-130107690D01*
X109211400Y-130964250D01*
X109370150Y-131123000D01*
X110583000Y-131123000D01*
X110583000Y-129757750D01*
X110575250Y-129750000D01*
X110583000Y-129742250D01*
X110583000Y-128377000D01*
X109370150Y-128377000D01*
X109211400Y-128535750D01*
X108284428Y-128535750D01*
X108272168Y-128506154D01*
X107898121Y-128281484D01*
X106179605Y-130000000D01*
X105820395Y-130000000D01*
X104101879Y-128281484D01*
X103727832Y-128506154D01*
X103329120Y-129489388D01*
X96215605Y-129489388D01*
X96060446Y-129114801D01*
X95778025Y-128997781D01*
X94696605Y-130079200D01*
X94337395Y-130079200D01*
X93255975Y-128997781D01*
X92973554Y-129114801D01*
X92721982Y-129778863D01*
X91213651Y-129778863D01*
X91210314Y-129669752D01*
X90980446Y-129114801D01*
X90698025Y-128997781D01*
X89616605Y-130079200D01*
X89257395Y-130079200D01*
X88175975Y-128997781D01*
X87893554Y-129114801D01*
X87641982Y-129778863D01*
X86602000Y-129778863D01*
X86602000Y-128818175D01*
X88355581Y-128818175D01*
X89437000Y-129899595D01*
X90518419Y-128818175D01*
X90401399Y-128535754D01*
X89737337Y-128284182D01*
X89027552Y-128305886D01*
X88472601Y-128535754D01*
X88355581Y-128818175D01*
X86602000Y-128818175D01*
X86602000Y-127871312D01*
X90299710Y-127871312D01*
X90554480Y-128487903D01*
X91025816Y-128960062D01*
X91641961Y-129215908D01*
X92309112Y-129216490D01*
X92925703Y-128961720D01*
X93069498Y-128818175D01*
X93435581Y-128818175D01*
X94517000Y-129899595D01*
X95598419Y-128818175D01*
X95481399Y-128535754D01*
X94817337Y-128284182D01*
X94107552Y-128305886D01*
X93552601Y-128535754D01*
X93435581Y-128818175D01*
X93069498Y-128818175D01*
X93397862Y-128490384D01*
X93559183Y-128101879D01*
X104281484Y-128101879D01*
X106000000Y-129820395D01*
X107718516Y-128101879D01*
X107493846Y-127727832D01*
X106510612Y-127329120D01*
X105449643Y-127337025D01*
X104506154Y-127727832D01*
X104281484Y-128101879D01*
X93559183Y-128101879D01*
X93653708Y-127874239D01*
X93654109Y-127413779D01*
X98672857Y-127413779D01*
X98798495Y-127717846D01*
X99030930Y-127950688D01*
X99334778Y-128076856D01*
X99663779Y-128077143D01*
X99967846Y-127951505D01*
X100200688Y-127719070D01*
X100326856Y-127415222D01*
X100327143Y-127086221D01*
X100277000Y-126964866D01*
X100277000Y-126250000D01*
X100217854Y-125952655D01*
X100049422Y-125700578D01*
X99797345Y-125532146D01*
X99500000Y-125473000D01*
X99202655Y-125532146D01*
X98950578Y-125700578D01*
X98782146Y-125952655D01*
X98723000Y-126250000D01*
X98723000Y-126964711D01*
X98673144Y-127084778D01*
X98672857Y-127413779D01*
X93654109Y-127413779D01*
X93654290Y-127207088D01*
X93399520Y-126590497D01*
X93069824Y-126260225D01*
X93435581Y-126260225D01*
X93552601Y-126542646D01*
X94216663Y-126794218D01*
X94926448Y-126772514D01*
X95481399Y-126542646D01*
X95598419Y-126260225D01*
X94517000Y-125178805D01*
X93435581Y-126260225D01*
X93069824Y-126260225D01*
X92928184Y-126118338D01*
X92312039Y-125862492D01*
X91644888Y-125861910D01*
X91028297Y-126116680D01*
X90556138Y-126588016D01*
X90300292Y-127204161D01*
X90299710Y-127871312D01*
X86602000Y-127871312D01*
X86602000Y-126260225D01*
X88355581Y-126260225D01*
X88472601Y-126542646D01*
X89136663Y-126794218D01*
X89846448Y-126772514D01*
X90401399Y-126542646D01*
X90518419Y-126260225D01*
X89437000Y-125178805D01*
X88355581Y-126260225D01*
X86602000Y-126260225D01*
X86602000Y-124698863D01*
X87641982Y-124698863D01*
X87663686Y-125408648D01*
X87893554Y-125963599D01*
X88175975Y-126080619D01*
X89257395Y-124999200D01*
X89616605Y-124999200D01*
X90698025Y-126080619D01*
X90980446Y-125963599D01*
X91232018Y-125299537D01*
X91213651Y-124698863D01*
X92721982Y-124698863D01*
X92743686Y-125408648D01*
X92973554Y-125963599D01*
X93255975Y-126080619D01*
X94337395Y-124999200D01*
X94696605Y-124999200D01*
X95778025Y-126080619D01*
X96060446Y-125963599D01*
X96312018Y-125299537D01*
X96290314Y-124589752D01*
X96060446Y-124034801D01*
X95778025Y-123917781D01*
X94696605Y-124999200D01*
X94337395Y-124999200D01*
X93255975Y-123917781D01*
X92973554Y-124034801D01*
X92721982Y-124698863D01*
X91213651Y-124698863D01*
X91210314Y-124589752D01*
X90980446Y-124034801D01*
X90698025Y-123917781D01*
X89616605Y-124999200D01*
X89257395Y-124999200D01*
X88175975Y-123917781D01*
X87893554Y-124034801D01*
X87641982Y-124698863D01*
X86602000Y-124698863D01*
X86602000Y-123738175D01*
X88355581Y-123738175D01*
X89437000Y-124819595D01*
X90518419Y-123738175D01*
X93435581Y-123738175D01*
X94517000Y-124819595D01*
X95598419Y-123738175D01*
X95481399Y-123455754D01*
X94817337Y-123204182D01*
X94107552Y-123225886D01*
X93552601Y-123455754D01*
X93435581Y-123738175D01*
X90518419Y-123738175D01*
X90401399Y-123455754D01*
X89737337Y-123204182D01*
X89027552Y-123225886D01*
X88472601Y-123455754D01*
X88355581Y-123738175D01*
X86602000Y-123738175D01*
X86602000Y-111937789D01*
X86790135Y-112106045D01*
X87305015Y-112286429D01*
X87524000Y-112141293D01*
X87524000Y-111029000D01*
X87778000Y-111029000D01*
X87778000Y-112141293D01*
X87996985Y-112286429D01*
X88511865Y-112106045D01*
X88918522Y-111742356D01*
X89155046Y-111250731D01*
X89155220Y-111245070D01*
X89032720Y-111029000D01*
X87778000Y-111029000D01*
X87524000Y-111029000D01*
X87504000Y-111029000D01*
X87504000Y-110775000D01*
X87524000Y-110775000D01*
X87524000Y-109662707D01*
X87477668Y-109632000D01*
X87524000Y-109601293D01*
X87524000Y-108489000D01*
X87778000Y-108489000D01*
X87778000Y-109601293D01*
X87824332Y-109632000D01*
X87778000Y-109662707D01*
X87778000Y-110775000D01*
X89032720Y-110775000D01*
X89155220Y-110558930D01*
X89155046Y-110553269D01*
X88918522Y-110061644D01*
X88511865Y-109697955D01*
X88323606Y-109632000D01*
X88511865Y-109566045D01*
X88918522Y-109202356D01*
X89155046Y-108710731D01*
X89155220Y-108705070D01*
X89032720Y-108489000D01*
X87778000Y-108489000D01*
X87524000Y-108489000D01*
X87504000Y-108489000D01*
X87504000Y-108235000D01*
X87524000Y-108235000D01*
X87524000Y-107122707D01*
X87477668Y-107092000D01*
X87524000Y-107061293D01*
X87524000Y-105949000D01*
X87778000Y-105949000D01*
X87778000Y-107061293D01*
X87824332Y-107092000D01*
X87778000Y-107122707D01*
X87778000Y-108235000D01*
X89032720Y-108235000D01*
X89155220Y-108018930D01*
X89155046Y-108013269D01*
X88918522Y-107521644D01*
X88511865Y-107157955D01*
X88323606Y-107092000D01*
X88511865Y-107026045D01*
X88918522Y-106662356D01*
X89155046Y-106170731D01*
X89155220Y-106165070D01*
X89032720Y-105949000D01*
X87778000Y-105949000D01*
X87524000Y-105949000D01*
X87504000Y-105949000D01*
X87504000Y-105695000D01*
X87524000Y-105695000D01*
X87524000Y-104582707D01*
X87477668Y-104552000D01*
X87524000Y-104521293D01*
X87524000Y-103409000D01*
X87778000Y-103409000D01*
X87778000Y-104521293D01*
X87824332Y-104552000D01*
X87778000Y-104582707D01*
X87778000Y-105695000D01*
X89032720Y-105695000D01*
X89155220Y-105478930D01*
X89155046Y-105473269D01*
X88918522Y-104981644D01*
X88511865Y-104617955D01*
X88323606Y-104552000D01*
X88511865Y-104486045D01*
X88918522Y-104122356D01*
X89155046Y-103630731D01*
X89155220Y-103625070D01*
X89032720Y-103409000D01*
X87778000Y-103409000D01*
X87524000Y-103409000D01*
X87504000Y-103409000D01*
X87504000Y-103155000D01*
X87524000Y-103155000D01*
X87524000Y-102042707D01*
X87477668Y-102012000D01*
X87524000Y-101981293D01*
X87524000Y-100869000D01*
X87778000Y-100869000D01*
X87778000Y-101981293D01*
X87824332Y-102012000D01*
X87778000Y-102042707D01*
X87778000Y-103155000D01*
X89032720Y-103155000D01*
X89155220Y-102938930D01*
X89155046Y-102933269D01*
X88918522Y-102441644D01*
X88511865Y-102077955D01*
X88323606Y-102012000D01*
X88511865Y-101946045D01*
X88918522Y-101582356D01*
X89155046Y-101090731D01*
X89155220Y-101085070D01*
X89032720Y-100869000D01*
X87778000Y-100869000D01*
X87524000Y-100869000D01*
X87504000Y-100869000D01*
X87504000Y-100615000D01*
X87524000Y-100615000D01*
X87524000Y-99502707D01*
X87477668Y-99472000D01*
X87524000Y-99441293D01*
X87524000Y-98329000D01*
X87778000Y-98329000D01*
X87778000Y-99441293D01*
X87824332Y-99472000D01*
X87778000Y-99502707D01*
X87778000Y-100615000D01*
X89032720Y-100615000D01*
X89155220Y-100398930D01*
X89155046Y-100393269D01*
X88918522Y-99901644D01*
X88511865Y-99537955D01*
X88323606Y-99472000D01*
X88511865Y-99406045D01*
X88918522Y-99042356D01*
X89155046Y-98550731D01*
X89155220Y-98545070D01*
X89032720Y-98329000D01*
X87778000Y-98329000D01*
X87524000Y-98329000D01*
X87504000Y-98329000D01*
X87504000Y-98075000D01*
X87524000Y-98075000D01*
X87524000Y-96962707D01*
X87477668Y-96932000D01*
X87524000Y-96901293D01*
X87524000Y-95789000D01*
X87778000Y-95789000D01*
X87778000Y-96901293D01*
X87824332Y-96932000D01*
X87778000Y-96962707D01*
X87778000Y-98075000D01*
X89032720Y-98075000D01*
X89155220Y-97858930D01*
X89155046Y-97853269D01*
X88918522Y-97361644D01*
X88511865Y-96997955D01*
X88323606Y-96932000D01*
X88511865Y-96866045D01*
X88918522Y-96502356D01*
X89155046Y-96010731D01*
X89155220Y-96005070D01*
X89032720Y-95789000D01*
X87778000Y-95789000D01*
X87524000Y-95789000D01*
X87504000Y-95789000D01*
X87504000Y-95535000D01*
X87524000Y-95535000D01*
X87524000Y-94422707D01*
X87486438Y-94397812D01*
X87524000Y-94360250D01*
X87524000Y-93249000D01*
X87778000Y-93249000D01*
X87778000Y-94360250D01*
X87815562Y-94397812D01*
X87778000Y-94422707D01*
X87778000Y-95535000D01*
X89032720Y-95535000D01*
X89155220Y-95318930D01*
X89155046Y-95313269D01*
X88918522Y-94821644D01*
X88580122Y-94519000D01*
X88689310Y-94519000D01*
X88922699Y-94422327D01*
X89101327Y-94243698D01*
X89198000Y-94010309D01*
X89198000Y-93407750D01*
X89039250Y-93249000D01*
X87778000Y-93249000D01*
X87524000Y-93249000D01*
X87504000Y-93249000D01*
X87504000Y-92995000D01*
X87524000Y-92995000D01*
X87524000Y-91883750D01*
X87778000Y-91883750D01*
X87778000Y-92995000D01*
X89039250Y-92995000D01*
X89198000Y-92836250D01*
X89198000Y-92233691D01*
X89101327Y-92000302D01*
X88922699Y-91821673D01*
X88689310Y-91725000D01*
X87936750Y-91725000D01*
X87778000Y-91883750D01*
X87524000Y-91883750D01*
X87365250Y-91725000D01*
X86612690Y-91725000D01*
X86602000Y-91729428D01*
X86602000Y-87898121D01*
X104281484Y-87898121D01*
X104506154Y-88272168D01*
X105489388Y-88670880D01*
X106550357Y-88662975D01*
X107493846Y-88272168D01*
X107718516Y-87898121D01*
X106000000Y-86179605D01*
X104281484Y-87898121D01*
X86602000Y-87898121D01*
X86602000Y-85489388D01*
X103329120Y-85489388D01*
X103337025Y-86550357D01*
X103727832Y-87493846D01*
X104101879Y-87718516D01*
X105820395Y-86000000D01*
X106179605Y-86000000D01*
X107898121Y-87718516D01*
X108272168Y-87493846D01*
X108670880Y-86510612D01*
X108662975Y-85449643D01*
X108595089Y-85285750D01*
X110763280Y-85285750D01*
X110763280Y-85975940D01*
X110859953Y-86209329D01*
X111038582Y-86387957D01*
X111271971Y-86484630D01*
X111711970Y-86484630D01*
X111870720Y-86325880D01*
X111870720Y-85127000D01*
X110922030Y-85127000D01*
X110763280Y-85285750D01*
X108595089Y-85285750D01*
X108272168Y-84506154D01*
X107898121Y-84281484D01*
X106179605Y-86000000D01*
X105820395Y-86000000D01*
X104101879Y-84281484D01*
X103727832Y-84506154D01*
X103329120Y-85489388D01*
X86602000Y-85489388D01*
X86602000Y-83602000D01*
X104809938Y-83602000D01*
X104506154Y-83727832D01*
X104506154Y-83727832D01*
G37*
X104506154Y-83727832D02*
X104281484Y-84101879D01*
X106000000Y-85820395D01*
X107718516Y-84101879D01*
X107493846Y-83727832D01*
X107183541Y-83602000D01*
X111062828Y-83602000D01*
X111038582Y-83612043D01*
X110859953Y-83790671D01*
X110763280Y-84024060D01*
X110763280Y-84714250D01*
X110922030Y-84873000D01*
X111870720Y-84873000D01*
X111870720Y-84853000D01*
X112124720Y-84853000D01*
X112124720Y-84873000D01*
X112144720Y-84873000D01*
X112144720Y-85127000D01*
X112124720Y-85127000D01*
X112124720Y-86325880D01*
X112283470Y-86484630D01*
X112723469Y-86484630D01*
X112956858Y-86387957D01*
X112972240Y-86372575D01*
X112972240Y-91113362D01*
X112959801Y-91125801D01*
X112737176Y-91458984D01*
X112659000Y-91852000D01*
X112737176Y-92245016D01*
X112959801Y-92578199D01*
X113292984Y-92800824D01*
X113686000Y-92879000D01*
X114079016Y-92800824D01*
X114172251Y-92738527D01*
X114172251Y-98625351D01*
X110073800Y-102723802D01*
X110073798Y-102723805D01*
X109773801Y-103023801D01*
X109551176Y-103356984D01*
X109473000Y-103750000D01*
X109551176Y-104143016D01*
X109773801Y-104476199D01*
X110106984Y-104698824D01*
X110500000Y-104777000D01*
X110893016Y-104698824D01*
X111226199Y-104476199D01*
X111526195Y-104176202D01*
X111526198Y-104176200D01*
X115925450Y-99776948D01*
X115974588Y-99703408D01*
X116148075Y-99443765D01*
X116192770Y-99219070D01*
X116226252Y-99050749D01*
X116226251Y-99050744D01*
X116226251Y-92726147D01*
X117851196Y-91101201D01*
X117851199Y-91101199D01*
X120675397Y-88277000D01*
X134574602Y-88277000D01*
X142521519Y-96223916D01*
X142521521Y-96223919D01*
X142594548Y-96272714D01*
X142532154Y-96298495D01*
X142299312Y-96530930D01*
X142173144Y-96834778D01*
X142172857Y-97163779D01*
X142298495Y-97467846D01*
X142346000Y-97515434D01*
X142346000Y-98250000D01*
X142395783Y-98500275D01*
X142537552Y-98712448D01*
X143663575Y-99838471D01*
X143682145Y-99931830D01*
X143926327Y-100297273D01*
X144131373Y-100434281D01*
X143818432Y-100670783D01*
X143572101Y-101090307D01*
X143556905Y-101182219D01*
X143681643Y-101372740D01*
X144873000Y-101372740D01*
X144873000Y-101352740D01*
X145127000Y-101352740D01*
X145127000Y-101372740D01*
X146318357Y-101372740D01*
X146443095Y-101182219D01*
X146427899Y-101090307D01*
X146181568Y-100670783D01*
X145868627Y-100434281D01*
X146073673Y-100297273D01*
X146317855Y-99931830D01*
X146403600Y-99500760D01*
X146317855Y-99069690D01*
X146073673Y-98704247D01*
X145767997Y-98500000D01*
X146073673Y-98295753D01*
X146317855Y-97930310D01*
X146403600Y-97499240D01*
X146317855Y-97068170D01*
X146073673Y-96702727D01*
X145944753Y-96616585D01*
X146044924Y-96597737D01*
X146224290Y-96482318D01*
X146344620Y-96306209D01*
X146386954Y-96097160D01*
X146386954Y-94898280D01*
X146350207Y-94702986D01*
X146234788Y-94523620D01*
X146058679Y-94403290D01*
X145849630Y-94360956D01*
X144150370Y-94360956D01*
X143955076Y-94397703D01*
X143841604Y-94470720D01*
X143673117Y-94470720D01*
X139972849Y-90770451D01*
X149515370Y-90770451D01*
X149515370Y-91210450D01*
X149674120Y-91369200D01*
X150873000Y-91369200D01*
X150873000Y-90420510D01*
X150714250Y-90261760D01*
X150024060Y-90261760D01*
X149790671Y-90358433D01*
X149612043Y-90537062D01*
X149515370Y-90770451D01*
X139972849Y-90770451D01*
X135726199Y-86523801D01*
X135393016Y-86301176D01*
X135000000Y-86223000D01*
X134574290Y-86223000D01*
X134797773Y-86073673D01*
X134996004Y-85777000D01*
X137723000Y-85777000D01*
X137723000Y-86964711D01*
X137673144Y-87084778D01*
X137672857Y-87413779D01*
X137798495Y-87717846D01*
X138030930Y-87950688D01*
X138334778Y-88076856D01*
X138663779Y-88077143D01*
X138967846Y-87951505D01*
X139200688Y-87719070D01*
X139326856Y-87415222D01*
X139327143Y-87086221D01*
X139277000Y-86964866D01*
X139277000Y-85777000D01*
X145723000Y-85777000D01*
X145723000Y-87581992D01*
X145782146Y-87879337D01*
X145950578Y-88131414D01*
X146081857Y-88262693D01*
X146131503Y-88382846D01*
X146363938Y-88615688D01*
X146667786Y-88741856D01*
X146996787Y-88742143D01*
X147300854Y-88616505D01*
X147533696Y-88384070D01*
X147659864Y-88080222D01*
X147660022Y-87898121D01*
X148281484Y-87898121D01*
X148506154Y-88272168D01*
X149489388Y-88670880D01*
X150550357Y-88662975D01*
X151493846Y-88272168D01*
X151718516Y-87898121D01*
X150000000Y-86179605D01*
X148281484Y-87898121D01*
X147660022Y-87898121D01*
X147660151Y-87751221D01*
X147534513Y-87447154D01*
X147302078Y-87214312D01*
X147277000Y-87203899D01*
X147277000Y-85489388D01*
X147329120Y-85489388D01*
X147337025Y-86550357D01*
X147727832Y-87493846D01*
X148101879Y-87718516D01*
X149820395Y-86000000D01*
X148101879Y-84281484D01*
X147727832Y-84506154D01*
X147329120Y-85489388D01*
X147277000Y-85489388D01*
X147277000Y-85197360D01*
X147300850Y-85187505D01*
X147533692Y-84955070D01*
X147659860Y-84651222D01*
X147660147Y-84322221D01*
X147534509Y-84018154D01*
X147302074Y-83785312D01*
X146998226Y-83659144D01*
X146669225Y-83658857D01*
X146365158Y-83784495D01*
X146132316Y-84016930D01*
X146081961Y-84138199D01*
X145997160Y-84223000D01*
X134996004Y-84223000D01*
X134797773Y-83926327D01*
X134432330Y-83682145D01*
X134029413Y-83602000D01*
X148809938Y-83602000D01*
X148506154Y-83727832D01*
X148281484Y-84101879D01*
X150000000Y-85820395D01*
X151718516Y-84101879D01*
X151493846Y-83727832D01*
X151183541Y-83602000D01*
X152398000Y-83602000D01*
X152398000Y-84809938D01*
X152272168Y-84506154D01*
X151898121Y-84281484D01*
X150179605Y-86000000D01*
X151898121Y-87718516D01*
X152272168Y-87493846D01*
X152398000Y-87183541D01*
X152398000Y-90561308D01*
X152387957Y-90537062D01*
X152209329Y-90358433D01*
X151975940Y-90261760D01*
X151285750Y-90261760D01*
X151127000Y-90420510D01*
X151127000Y-91369200D01*
X151147000Y-91369200D01*
X151147000Y-91623200D01*
X151127000Y-91623200D01*
X151127000Y-91643200D01*
X150873000Y-91643200D01*
X150873000Y-91623200D01*
X149674120Y-91623200D01*
X149515370Y-91781950D01*
X149515370Y-92221949D01*
X149612043Y-92455338D01*
X149790671Y-92633967D01*
X149936535Y-92694386D01*
X149926327Y-92701207D01*
X149829579Y-92846000D01*
X149750000Y-92846000D01*
X149499725Y-92895783D01*
X149287552Y-93037552D01*
X147787552Y-94537552D01*
X147645783Y-94749725D01*
X147596000Y-95000000D01*
X147596000Y-102229104D01*
X144979104Y-104846000D01*
X135500000Y-104846000D01*
X135249725Y-104895783D01*
X135037552Y-105037552D01*
X133402189Y-106672915D01*
X133336221Y-106672857D01*
X133277000Y-106697327D01*
X133277000Y-103221901D01*
X133393016Y-103198824D01*
X133726199Y-102976199D01*
X134885136Y-101817261D01*
X143556905Y-101817261D01*
X143572101Y-101909173D01*
X143818432Y-102328697D01*
X144206557Y-102622019D01*
X144677387Y-102744485D01*
X144873000Y-102581740D01*
X144873000Y-101626740D01*
X145127000Y-101626740D01*
X145127000Y-102581740D01*
X145322613Y-102744485D01*
X145793443Y-102622019D01*
X146181568Y-102328697D01*
X146427899Y-101909173D01*
X146443095Y-101817261D01*
X146318357Y-101626740D01*
X145127000Y-101626740D01*
X144873000Y-101626740D01*
X143681643Y-101626740D01*
X143556905Y-101817261D01*
X134885136Y-101817261D01*
X136476196Y-100226201D01*
X136476199Y-100226199D01*
X136698824Y-99893016D01*
X136777000Y-99500000D01*
X136777000Y-99404000D01*
X138729104Y-99404000D01*
X139172915Y-99847811D01*
X139172857Y-99913779D01*
X139298495Y-100217846D01*
X139530930Y-100450688D01*
X139834778Y-100576856D01*
X140163779Y-100577143D01*
X140467846Y-100451505D01*
X140700688Y-100219070D01*
X140826856Y-99915222D01*
X140827143Y-99586221D01*
X140701505Y-99282154D01*
X140469070Y-99049312D01*
X140165222Y-98923144D01*
X140097981Y-98923085D01*
X139462448Y-98287552D01*
X139250275Y-98145783D01*
X139000000Y-98096000D01*
X136777000Y-98096000D01*
X136777000Y-96750000D01*
X136698824Y-96356984D01*
X136476199Y-96023801D01*
X136143016Y-95801176D01*
X135750000Y-95723000D01*
X135356984Y-95801176D01*
X135023801Y-96023801D01*
X134801176Y-96356984D01*
X134723000Y-96750000D01*
X134723000Y-99074603D01*
X132574602Y-101223000D01*
X130277024Y-101223000D01*
X130277134Y-101096123D01*
X130159092Y-100810440D01*
X129940710Y-100591676D01*
X129655233Y-100473135D01*
X129654000Y-100473134D01*
X129654000Y-93020896D01*
X131097811Y-91577085D01*
X131163779Y-91577143D01*
X131467846Y-91451505D01*
X131700688Y-91219070D01*
X131826856Y-90915222D01*
X131827143Y-90586221D01*
X131701505Y-90282154D01*
X131469070Y-90049312D01*
X131165222Y-89923144D01*
X130836221Y-89922857D01*
X130532154Y-90048495D01*
X130500148Y-90080445D01*
X130469070Y-90049312D01*
X130165222Y-89923144D01*
X129836221Y-89922857D01*
X129532154Y-90048495D01*
X129500148Y-90080445D01*
X129469070Y-90049312D01*
X129165222Y-89923144D01*
X128836221Y-89922857D01*
X128532154Y-90048495D01*
X128500148Y-90080445D01*
X128469070Y-90049312D01*
X128165222Y-89923144D01*
X127836221Y-89922857D01*
X127532154Y-90048495D01*
X127299312Y-90280930D01*
X127173144Y-90584778D01*
X127173085Y-90652019D01*
X127037552Y-90787552D01*
X126895783Y-90999725D01*
X126846000Y-91250000D01*
X126846000Y-92168069D01*
X126603221Y-92167857D01*
X126527000Y-92199351D01*
X126527000Y-90035289D01*
X126576856Y-89915222D01*
X126577143Y-89586221D01*
X126451505Y-89282154D01*
X126219070Y-89049312D01*
X125915222Y-88923144D01*
X125586221Y-88922857D01*
X125282154Y-89048495D01*
X125049312Y-89280930D01*
X124923144Y-89584778D01*
X124922857Y-89913779D01*
X124973000Y-90035134D01*
X124973000Y-96178156D01*
X124950579Y-96200577D01*
X124782147Y-96452654D01*
X124723001Y-96749999D01*
X124723001Y-97602821D01*
X124782147Y-97900166D01*
X124950579Y-98152243D01*
X125220170Y-98421834D01*
X125220170Y-99930986D01*
X125200578Y-99950578D01*
X125032146Y-100202655D01*
X124973000Y-100500000D01*
X124973000Y-101223000D01*
X123404000Y-101223000D01*
X123404000Y-99763000D01*
X123354217Y-99512725D01*
X123212448Y-99300552D01*
X122620085Y-98708189D01*
X122620143Y-98642221D01*
X122494505Y-98338154D01*
X122262070Y-98105312D01*
X121958222Y-97979144D01*
X121629221Y-97978857D01*
X121325154Y-98104495D01*
X121092312Y-98336930D01*
X120966144Y-98640778D01*
X120965857Y-98969779D01*
X121091495Y-99273846D01*
X121323930Y-99506688D01*
X121627778Y-99632856D01*
X121695019Y-99632915D01*
X122096000Y-100033896D01*
X122096000Y-101223000D01*
X117750000Y-101223000D01*
X117356984Y-101301176D01*
X117023801Y-101523801D01*
X116801176Y-101856984D01*
X116723000Y-102250000D01*
X116801176Y-102643016D01*
X117023801Y-102976199D01*
X117356984Y-103198824D01*
X117750000Y-103277000D01*
X124473000Y-103277000D01*
X124473000Y-103500000D01*
X124532146Y-103797345D01*
X124700578Y-104049422D01*
X124973000Y-104321844D01*
X124973000Y-110901000D01*
X124974000Y-110906027D01*
X124974000Y-111677156D01*
X123678156Y-112973000D01*
X121285289Y-112973000D01*
X121165222Y-112923144D01*
X120836221Y-112922857D01*
X120532154Y-113048495D01*
X120299312Y-113280930D01*
X120173144Y-113584778D01*
X120172857Y-113913779D01*
X120298495Y-114217846D01*
X120530930Y-114450688D01*
X120834778Y-114576856D01*
X121163779Y-114577143D01*
X121285134Y-114527000D01*
X123548104Y-114527000D01*
X122287552Y-115787552D01*
X122145783Y-115999725D01*
X122096000Y-116250000D01*
X122096000Y-119484324D01*
X122049312Y-119530930D01*
X122029952Y-119577554D01*
X120777000Y-118324602D01*
X120777000Y-115500005D01*
X120777001Y-115500000D01*
X120698825Y-115106985D01*
X120575986Y-114923144D01*
X120476199Y-114773801D01*
X120476196Y-114773799D01*
X118226199Y-112523801D01*
X117893016Y-112301176D01*
X117500000Y-112223000D01*
X112925398Y-112223000D01*
X112356398Y-111654000D01*
X121772114Y-111654000D01*
X121798495Y-111717846D01*
X122030930Y-111950688D01*
X122334778Y-112076856D01*
X122663779Y-112077143D01*
X122967846Y-111951505D01*
X123020164Y-111899279D01*
X123048495Y-111967846D01*
X123280930Y-112200688D01*
X123584778Y-112326856D01*
X123913779Y-112327143D01*
X124217846Y-112201505D01*
X124450688Y-111969070D01*
X124576856Y-111665222D01*
X124577143Y-111336221D01*
X124451505Y-111032154D01*
X124419555Y-111000148D01*
X124450688Y-110969070D01*
X124576856Y-110665222D01*
X124577143Y-110336221D01*
X124451505Y-110032154D01*
X124419555Y-110000148D01*
X124450688Y-109969070D01*
X124576856Y-109665222D01*
X124577143Y-109336221D01*
X124451505Y-109032154D01*
X124419555Y-109000148D01*
X124450688Y-108969070D01*
X124576856Y-108665222D01*
X124577143Y-108336221D01*
X124451505Y-108032154D01*
X124419555Y-108000148D01*
X124450688Y-107969070D01*
X124576856Y-107665222D01*
X124577143Y-107336221D01*
X124451505Y-107032154D01*
X124419555Y-107000148D01*
X124450688Y-106969070D01*
X124576856Y-106665222D01*
X124577143Y-106336221D01*
X124451505Y-106032154D01*
X124419555Y-106000148D01*
X124450688Y-105969070D01*
X124576856Y-105665222D01*
X124577143Y-105336221D01*
X124451505Y-105032154D01*
X124219070Y-104799312D01*
X123915222Y-104673144D01*
X123586221Y-104672857D01*
X123282154Y-104798495D01*
X123049312Y-105030930D01*
X122923144Y-105334778D01*
X122923085Y-105402019D01*
X121479104Y-106846000D01*
X101270896Y-106846000D01*
X99904000Y-105479104D01*
X99904000Y-103413779D01*
X101172857Y-103413779D01*
X101298495Y-103717846D01*
X101530930Y-103950688D01*
X101834778Y-104076856D01*
X102163779Y-104077143D01*
X102467846Y-103951505D01*
X102515434Y-103904000D01*
X104500000Y-103904000D01*
X104750275Y-103854217D01*
X104962448Y-103712448D01*
X108347811Y-100327085D01*
X108413779Y-100327143D01*
X108717846Y-100201505D01*
X108950688Y-99969070D01*
X109076856Y-99665222D01*
X109077143Y-99336221D01*
X108951505Y-99032154D01*
X108719070Y-98799312D01*
X108415222Y-98673144D01*
X108086221Y-98672857D01*
X107782154Y-98798495D01*
X107549312Y-99030930D01*
X107423144Y-99334778D01*
X107423085Y-99402019D01*
X104229104Y-102596000D01*
X102515676Y-102596000D01*
X102469070Y-102549312D01*
X102165222Y-102423144D01*
X101836221Y-102422857D01*
X101532154Y-102548495D01*
X101299312Y-102780930D01*
X101173144Y-103084778D01*
X101172857Y-103413779D01*
X99904000Y-103413779D01*
X99904000Y-95750000D01*
X99854217Y-95499725D01*
X99712448Y-95287552D01*
X97074770Y-92649874D01*
X96969286Y-92579392D01*
X96863674Y-92508552D01*
X96863091Y-92508435D01*
X96862597Y-92508105D01*
X96738085Y-92483338D01*
X96613488Y-92458323D01*
X96526113Y-92458167D01*
X96360653Y-92210539D01*
X95942471Y-91931119D01*
X95449192Y-91833000D01*
X95092808Y-91833000D01*
X94599529Y-91931119D01*
X94181347Y-92210539D01*
X93901927Y-92628721D01*
X93803808Y-93122000D01*
X93901927Y-93615279D01*
X94181347Y-94033461D01*
X94599529Y-94312881D01*
X94997288Y-94392000D01*
X94599529Y-94471119D01*
X94181347Y-94750539D01*
X93901927Y-95168721D01*
X93803808Y-95662000D01*
X93901927Y-96155279D01*
X94181347Y-96573461D01*
X94599529Y-96852881D01*
X94997288Y-96932000D01*
X94599529Y-97011119D01*
X94181347Y-97290539D01*
X93901927Y-97708721D01*
X93803808Y-98202000D01*
X93901927Y-98695279D01*
X94181347Y-99113461D01*
X94599529Y-99392881D01*
X94997288Y-99472000D01*
X94599529Y-99551119D01*
X94181347Y-99830539D01*
X93901927Y-100248721D01*
X93803808Y-100742000D01*
X93901927Y-101235279D01*
X94181347Y-101653461D01*
X94599529Y-101932881D01*
X94997288Y-102012000D01*
X94599529Y-102091119D01*
X94181347Y-102370539D01*
X93901927Y-102788721D01*
X93803808Y-103282000D01*
X93901927Y-103775279D01*
X94181347Y-104193461D01*
X94599529Y-104472881D01*
X94997288Y-104552000D01*
X94599529Y-104631119D01*
X94181347Y-104910539D01*
X93901927Y-105328721D01*
X93803808Y-105822000D01*
X93901927Y-106315279D01*
X94181347Y-106733461D01*
X94599529Y-107012881D01*
X94997288Y-107092000D01*
X94599529Y-107171119D01*
X94181347Y-107450539D01*
X93901927Y-107868721D01*
X93803808Y-108362000D01*
X93901927Y-108855279D01*
X94181347Y-109273461D01*
X94599529Y-109552881D01*
X94997288Y-109632000D01*
X94599529Y-109711119D01*
X94181347Y-109990539D01*
X93901927Y-110408721D01*
X93803808Y-110902000D01*
X93901927Y-111395279D01*
X94181347Y-111813461D01*
X94599529Y-112092881D01*
X95092808Y-112191000D01*
X95449192Y-112191000D01*
X95942471Y-112092881D01*
X96360653Y-111813461D01*
X96540701Y-111544000D01*
X98909604Y-111544000D01*
X98999725Y-111604217D01*
X99250000Y-111654000D01*
X110291824Y-111654000D01*
X110223000Y-112000000D01*
X110301176Y-112393016D01*
X110523801Y-112726199D01*
X111773801Y-113976199D01*
X112106984Y-114198824D01*
X112500000Y-114277001D01*
X112500005Y-114277000D01*
X117074602Y-114277000D01*
X118723000Y-115925397D01*
X118723000Y-118750000D01*
X118801176Y-119143016D01*
X119023801Y-119476199D01*
X120196176Y-120648574D01*
X120087000Y-120757750D01*
X120087000Y-122123000D01*
X120107000Y-122123000D01*
X120107000Y-122377000D01*
X120087000Y-122377000D01*
X120087000Y-123742250D01*
X120094750Y-123750000D01*
X120087000Y-123757750D01*
X120087000Y-125123000D01*
X120107000Y-125123000D01*
X120107000Y-125377000D01*
X120087000Y-125377000D01*
X120087000Y-126742250D01*
X120094750Y-126750000D01*
X120087000Y-126757750D01*
X120087000Y-128123000D01*
X120107000Y-128123000D01*
X120107000Y-128377000D01*
X120087000Y-128377000D01*
X120087000Y-128397000D01*
X119833000Y-128397000D01*
X119833000Y-128377000D01*
X118620150Y-128377000D01*
X118461400Y-128535750D01*
X118461400Y-128973000D01*
X117069261Y-128973000D01*
X117074747Y-128964789D01*
X117180600Y-128432629D01*
X117180600Y-128067371D01*
X117074747Y-127535211D01*
X116773303Y-127084068D01*
X116322160Y-126782624D01*
X116158148Y-126750000D01*
X116322160Y-126717376D01*
X116773303Y-126415932D01*
X117074747Y-125964789D01*
X117160087Y-125535750D01*
X118461400Y-125535750D01*
X118461400Y-126392310D01*
X118558073Y-126625699D01*
X118682375Y-126750000D01*
X118558073Y-126874301D01*
X118461400Y-127107690D01*
X118461400Y-127964250D01*
X118620150Y-128123000D01*
X119833000Y-128123000D01*
X119833000Y-126757750D01*
X119825250Y-126750000D01*
X119833000Y-126742250D01*
X119833000Y-125377000D01*
X118620150Y-125377000D01*
X118461400Y-125535750D01*
X117160087Y-125535750D01*
X117180600Y-125432629D01*
X117180600Y-125067371D01*
X117074747Y-124535211D01*
X116773303Y-124084068D01*
X116322160Y-123782624D01*
X116158148Y-123750000D01*
X116322160Y-123717376D01*
X116773303Y-123415932D01*
X117074747Y-122964789D01*
X117160087Y-122535750D01*
X118461400Y-122535750D01*
X118461400Y-123392310D01*
X118558073Y-123625699D01*
X118682375Y-123750000D01*
X118558073Y-123874301D01*
X118461400Y-124107690D01*
X118461400Y-124964250D01*
X118620150Y-125123000D01*
X119833000Y-125123000D01*
X119833000Y-123757750D01*
X119825250Y-123750000D01*
X119833000Y-123742250D01*
X119833000Y-122377000D01*
X118620150Y-122377000D01*
X118461400Y-122535750D01*
X117160087Y-122535750D01*
X117180600Y-122432629D01*
X117180600Y-122067371D01*
X117074747Y-121535211D01*
X116789087Y-121107690D01*
X118461400Y-121107690D01*
X118461400Y-121964250D01*
X118620150Y-122123000D01*
X119833000Y-122123000D01*
X119833000Y-120757750D01*
X119674250Y-120599000D01*
X118970091Y-120599000D01*
X118736702Y-120695673D01*
X118558073Y-120874301D01*
X118461400Y-121107690D01*
X116789087Y-121107690D01*
X116773303Y-121084068D01*
X116503812Y-120904000D01*
X117250000Y-120904000D01*
X117500275Y-120854217D01*
X117712448Y-120712448D01*
X118212448Y-120212448D01*
X118354217Y-120000275D01*
X118404000Y-119750000D01*
X118404000Y-118265676D01*
X118450688Y-118219070D01*
X118576856Y-117915222D01*
X118577143Y-117586221D01*
X118451505Y-117282154D01*
X118219070Y-117049312D01*
X117915222Y-116923144D01*
X117586221Y-116922857D01*
X117357708Y-117017277D01*
X117354217Y-116999725D01*
X117212448Y-116787552D01*
X116654000Y-116229104D01*
X116654000Y-115765676D01*
X116700688Y-115719070D01*
X116826856Y-115415222D01*
X116827143Y-115086221D01*
X116701505Y-114782154D01*
X116469070Y-114549312D01*
X116165222Y-114423144D01*
X115836221Y-114422857D01*
X115532154Y-114548495D01*
X115299312Y-114780930D01*
X115173144Y-115084778D01*
X115172857Y-115413779D01*
X115298495Y-115717846D01*
X115346000Y-115765434D01*
X115346000Y-116500000D01*
X115395783Y-116750275D01*
X115537552Y-116962448D01*
X116096000Y-117520896D01*
X116096000Y-117998209D01*
X115915222Y-117923144D01*
X115586221Y-117922857D01*
X115282154Y-118048495D01*
X115234566Y-118096000D01*
X113750000Y-118096000D01*
X113499725Y-118145783D01*
X113287552Y-118287552D01*
X112729104Y-118846000D01*
X110000000Y-118846000D01*
X109749725Y-118895783D01*
X109537552Y-119037552D01*
X107787552Y-120787552D01*
X107645783Y-120999725D01*
X107596000Y-121250000D01*
X107596000Y-121984324D01*
X107549312Y-122030930D01*
X107527000Y-122084664D01*
X107527000Y-117535289D01*
X107576856Y-117415222D01*
X107577143Y-117086221D01*
X107527000Y-116964866D01*
X107527000Y-114285289D01*
X107576856Y-114165222D01*
X107577143Y-113836221D01*
X107451505Y-113532154D01*
X107219070Y-113299312D01*
X106915222Y-113173144D01*
X106586221Y-113172857D01*
X106282154Y-113298495D01*
X106049312Y-113530930D01*
X105923144Y-113834778D01*
X105922857Y-114163779D01*
X105973000Y-114285134D01*
X105973000Y-116473000D01*
X104277000Y-116473000D01*
X104277000Y-116000000D01*
X104217854Y-115702655D01*
X104049422Y-115450578D01*
X104001151Y-115402307D01*
X103951505Y-115282154D01*
X103719070Y-115049312D01*
X103415222Y-114923144D01*
X103086221Y-114922857D01*
X102782154Y-115048495D01*
X102549312Y-115280930D01*
X102423144Y-115584778D01*
X102422857Y-115913779D01*
X102548495Y-116217846D01*
X102723000Y-116392657D01*
X102723000Y-116473000D01*
X100321844Y-116473000D01*
X99751151Y-115902307D01*
X99701505Y-115782154D01*
X99469070Y-115549312D01*
X99165222Y-115423144D01*
X98836221Y-115422857D01*
X98532154Y-115548495D01*
X98299312Y-115780930D01*
X98173144Y-116084778D01*
X98172857Y-116413779D01*
X98298495Y-116717846D01*
X98530930Y-116950688D01*
X98652199Y-117001043D01*
X99450578Y-117799422D01*
X99702655Y-117967854D01*
X100000000Y-118027000D01*
X105973000Y-118027000D01*
X105973000Y-121924136D01*
X102428156Y-125468980D01*
X102317824Y-125468980D01*
X100251151Y-123402307D01*
X100201505Y-123282154D01*
X99969070Y-123049312D01*
X99665222Y-122923144D01*
X99336221Y-122922857D01*
X99032154Y-123048495D01*
X98799312Y-123280930D01*
X98673144Y-123584778D01*
X98672857Y-123913779D01*
X98798495Y-124217846D01*
X99030930Y-124450688D01*
X99152199Y-124501043D01*
X101446558Y-126795402D01*
X101698635Y-126963834D01*
X101995980Y-127022980D01*
X102464711Y-127022980D01*
X102584778Y-127072836D01*
X102913779Y-127073123D01*
X103217846Y-126947485D01*
X103450688Y-126715050D01*
X103501043Y-126593781D01*
X104559074Y-125535750D01*
X109211400Y-125535750D01*
X109211400Y-126392310D01*
X109308073Y-126625699D01*
X109432375Y-126750000D01*
X109308073Y-126874301D01*
X109211400Y-127107690D01*
X109211400Y-127964250D01*
X109370150Y-128123000D01*
X110583000Y-128123000D01*
X110583000Y-126757750D01*
X110575250Y-126750000D01*
X110583000Y-126742250D01*
X110583000Y-125377000D01*
X109370150Y-125377000D01*
X109211400Y-125535750D01*
X104559074Y-125535750D01*
X106675251Y-123419573D01*
X106798495Y-123717846D01*
X107030930Y-123950688D01*
X107334778Y-124076856D01*
X107663779Y-124077143D01*
X107967846Y-123951505D01*
X108015434Y-123904000D01*
X108750000Y-123904000D01*
X109000275Y-123854217D01*
X109212448Y-123712448D01*
X109305473Y-123619423D01*
X109308073Y-123625699D01*
X109432375Y-123750000D01*
X109308073Y-123874301D01*
X109211400Y-124107690D01*
X109211400Y-124964250D01*
X109370150Y-125123000D01*
X110583000Y-125123000D01*
X110583000Y-123757750D01*
X110575250Y-123750000D01*
X110583000Y-123742250D01*
X110583000Y-122377000D01*
X110563000Y-122377000D01*
X110563000Y-122123000D01*
X110583000Y-122123000D01*
X110583000Y-122103000D01*
X110837000Y-122103000D01*
X110837000Y-122123000D01*
X110857000Y-122123000D01*
X110857000Y-122377000D01*
X110837000Y-122377000D01*
X110837000Y-123742250D01*
X110844750Y-123750000D01*
X110837000Y-123757750D01*
X110837000Y-125123000D01*
X110857000Y-125123000D01*
X110857000Y-125377000D01*
X110837000Y-125377000D01*
X110837000Y-126742250D01*
X110844750Y-126750000D01*
X110837000Y-126757750D01*
X110837000Y-128123000D01*
X110857000Y-128123000D01*
X110857000Y-128377000D01*
X110837000Y-128377000D01*
X110837000Y-129742250D01*
X110844750Y-129750000D01*
X110837000Y-129757750D01*
X110837000Y-131123000D01*
X110857000Y-131123000D01*
X110857000Y-131377000D01*
X110837000Y-131377000D01*
X110837000Y-131397000D01*
X110583000Y-131397000D01*
X110583000Y-131377000D01*
X109370150Y-131377000D01*
X109211400Y-131535750D01*
X109211400Y-132392310D01*
X109213757Y-132398000D01*
X107190062Y-132398000D01*
X107493846Y-132272168D01*
X107718516Y-131898121D01*
X106000000Y-130179605D01*
X104281484Y-131898121D01*
X104506154Y-132272168D01*
X104816459Y-132398000D01*
X86602000Y-132398000D01*
X86602000Y-131340225D01*
X88355581Y-131340225D01*
X88472601Y-131622646D01*
X89136663Y-131874218D01*
X89846448Y-131852514D01*
X90401399Y-131622646D01*
X90518419Y-131340225D01*
X93435581Y-131340225D01*
X93552601Y-131622646D01*
X94216663Y-131874218D01*
X94926448Y-131852514D01*
X95481399Y-131622646D01*
X95598419Y-131340225D01*
X94517000Y-130258805D01*
X93435581Y-131340225D01*
X90518419Y-131340225D01*
X89437000Y-130258805D01*
X88355581Y-131340225D01*
X86602000Y-131340225D01*
X86602000Y-129778863D01*
X87641982Y-129778863D01*
X87663686Y-130488648D01*
X87893554Y-131043599D01*
X88175975Y-131160619D01*
X89257395Y-130079200D01*
X89616605Y-130079200D01*
X90698025Y-131160619D01*
X90980446Y-131043599D01*
X91232018Y-130379537D01*
X91213651Y-129778863D01*
X92721982Y-129778863D01*
X92743686Y-130488648D01*
X92973554Y-131043599D01*
X93255975Y-131160619D01*
X94337395Y-130079200D01*
X94696605Y-130079200D01*
X95778025Y-131160619D01*
X96060446Y-131043599D01*
X96312018Y-130379537D01*
X96290314Y-129669752D01*
X96215605Y-129489388D01*
X103329120Y-129489388D01*
X103337025Y-130550357D01*
X103727832Y-131493846D01*
X104101879Y-131718516D01*
X105820395Y-130000000D01*
X106179605Y-130000000D01*
X107898121Y-131718516D01*
X108272168Y-131493846D01*
X108670880Y-130510612D01*
X108662975Y-129449643D01*
X108284428Y-128535750D01*
X109211400Y-128535750D01*
X109211400Y-129392310D01*
X109308073Y-129625699D01*
X109432375Y-129750000D01*
X109308073Y-129874301D01*
X109211400Y-130107690D01*
X109211400Y-130964250D01*
X109370150Y-131123000D01*
X110583000Y-131123000D01*
X110583000Y-129757750D01*
X110575250Y-129750000D01*
X110583000Y-129742250D01*
X110583000Y-128377000D01*
X109370150Y-128377000D01*
X109211400Y-128535750D01*
X108284428Y-128535750D01*
X108272168Y-128506154D01*
X107898121Y-128281484D01*
X106179605Y-130000000D01*
X105820395Y-130000000D01*
X104101879Y-128281484D01*
X103727832Y-128506154D01*
X103329120Y-129489388D01*
X96215605Y-129489388D01*
X96060446Y-129114801D01*
X95778025Y-128997781D01*
X94696605Y-130079200D01*
X94337395Y-130079200D01*
X93255975Y-128997781D01*
X92973554Y-129114801D01*
X92721982Y-129778863D01*
X91213651Y-129778863D01*
X91210314Y-129669752D01*
X90980446Y-129114801D01*
X90698025Y-128997781D01*
X89616605Y-130079200D01*
X89257395Y-130079200D01*
X88175975Y-128997781D01*
X87893554Y-129114801D01*
X87641982Y-129778863D01*
X86602000Y-129778863D01*
X86602000Y-128818175D01*
X88355581Y-128818175D01*
X89437000Y-129899595D01*
X90518419Y-128818175D01*
X90401399Y-128535754D01*
X89737337Y-128284182D01*
X89027552Y-128305886D01*
X88472601Y-128535754D01*
X88355581Y-128818175D01*
X86602000Y-128818175D01*
X86602000Y-127871312D01*
X90299710Y-127871312D01*
X90554480Y-128487903D01*
X91025816Y-128960062D01*
X91641961Y-129215908D01*
X92309112Y-129216490D01*
X92925703Y-128961720D01*
X93069498Y-128818175D01*
X93435581Y-128818175D01*
X94517000Y-129899595D01*
X95598419Y-128818175D01*
X95481399Y-128535754D01*
X94817337Y-128284182D01*
X94107552Y-128305886D01*
X93552601Y-128535754D01*
X93435581Y-128818175D01*
X93069498Y-128818175D01*
X93397862Y-128490384D01*
X93559183Y-128101879D01*
X104281484Y-128101879D01*
X106000000Y-129820395D01*
X107718516Y-128101879D01*
X107493846Y-127727832D01*
X106510612Y-127329120D01*
X105449643Y-127337025D01*
X104506154Y-127727832D01*
X104281484Y-128101879D01*
X93559183Y-128101879D01*
X93653708Y-127874239D01*
X93654109Y-127413779D01*
X98672857Y-127413779D01*
X98798495Y-127717846D01*
X99030930Y-127950688D01*
X99334778Y-128076856D01*
X99663779Y-128077143D01*
X99967846Y-127951505D01*
X100200688Y-127719070D01*
X100326856Y-127415222D01*
X100327143Y-127086221D01*
X100277000Y-126964866D01*
X100277000Y-126250000D01*
X100217854Y-125952655D01*
X100049422Y-125700578D01*
X99797345Y-125532146D01*
X99500000Y-125473000D01*
X99202655Y-125532146D01*
X98950578Y-125700578D01*
X98782146Y-125952655D01*
X98723000Y-126250000D01*
X98723000Y-126964711D01*
X98673144Y-127084778D01*
X98672857Y-127413779D01*
X93654109Y-127413779D01*
X93654290Y-127207088D01*
X93399520Y-126590497D01*
X93069824Y-126260225D01*
X93435581Y-126260225D01*
X93552601Y-126542646D01*
X94216663Y-126794218D01*
X94926448Y-126772514D01*
X95481399Y-126542646D01*
X95598419Y-126260225D01*
X94517000Y-125178805D01*
X93435581Y-126260225D01*
X93069824Y-126260225D01*
X92928184Y-126118338D01*
X92312039Y-125862492D01*
X91644888Y-125861910D01*
X91028297Y-126116680D01*
X90556138Y-126588016D01*
X90300292Y-127204161D01*
X90299710Y-127871312D01*
X86602000Y-127871312D01*
X86602000Y-126260225D01*
X88355581Y-126260225D01*
X88472601Y-126542646D01*
X89136663Y-126794218D01*
X89846448Y-126772514D01*
X90401399Y-126542646D01*
X90518419Y-126260225D01*
X89437000Y-125178805D01*
X88355581Y-126260225D01*
X86602000Y-126260225D01*
X86602000Y-124698863D01*
X87641982Y-124698863D01*
X87663686Y-125408648D01*
X87893554Y-125963599D01*
X88175975Y-126080619D01*
X89257395Y-124999200D01*
X89616605Y-124999200D01*
X90698025Y-126080619D01*
X90980446Y-125963599D01*
X91232018Y-125299537D01*
X91213651Y-124698863D01*
X92721982Y-124698863D01*
X92743686Y-125408648D01*
X92973554Y-125963599D01*
X93255975Y-126080619D01*
X94337395Y-124999200D01*
X94696605Y-124999200D01*
X95778025Y-126080619D01*
X96060446Y-125963599D01*
X96312018Y-125299537D01*
X96290314Y-124589752D01*
X96060446Y-124034801D01*
X95778025Y-123917781D01*
X94696605Y-124999200D01*
X94337395Y-124999200D01*
X93255975Y-123917781D01*
X92973554Y-124034801D01*
X92721982Y-124698863D01*
X91213651Y-124698863D01*
X91210314Y-124589752D01*
X90980446Y-124034801D01*
X90698025Y-123917781D01*
X89616605Y-124999200D01*
X89257395Y-124999200D01*
X88175975Y-123917781D01*
X87893554Y-124034801D01*
X87641982Y-124698863D01*
X86602000Y-124698863D01*
X86602000Y-123738175D01*
X88355581Y-123738175D01*
X89437000Y-124819595D01*
X90518419Y-123738175D01*
X93435581Y-123738175D01*
X94517000Y-124819595D01*
X95598419Y-123738175D01*
X95481399Y-123455754D01*
X94817337Y-123204182D01*
X94107552Y-123225886D01*
X93552601Y-123455754D01*
X93435581Y-123738175D01*
X90518419Y-123738175D01*
X90401399Y-123455754D01*
X89737337Y-123204182D01*
X89027552Y-123225886D01*
X88472601Y-123455754D01*
X88355581Y-123738175D01*
X86602000Y-123738175D01*
X86602000Y-111937789D01*
X86790135Y-112106045D01*
X87305015Y-112286429D01*
X87524000Y-112141293D01*
X87524000Y-111029000D01*
X87778000Y-111029000D01*
X87778000Y-112141293D01*
X87996985Y-112286429D01*
X88511865Y-112106045D01*
X88918522Y-111742356D01*
X89155046Y-111250731D01*
X89155220Y-111245070D01*
X89032720Y-111029000D01*
X87778000Y-111029000D01*
X87524000Y-111029000D01*
X87504000Y-111029000D01*
X87504000Y-110775000D01*
X87524000Y-110775000D01*
X87524000Y-109662707D01*
X87477668Y-109632000D01*
X87524000Y-109601293D01*
X87524000Y-108489000D01*
X87778000Y-108489000D01*
X87778000Y-109601293D01*
X87824332Y-109632000D01*
X87778000Y-109662707D01*
X87778000Y-110775000D01*
X89032720Y-110775000D01*
X89155220Y-110558930D01*
X89155046Y-110553269D01*
X88918522Y-110061644D01*
X88511865Y-109697955D01*
X88323606Y-109632000D01*
X88511865Y-109566045D01*
X88918522Y-109202356D01*
X89155046Y-108710731D01*
X89155220Y-108705070D01*
X89032720Y-108489000D01*
X87778000Y-108489000D01*
X87524000Y-108489000D01*
X87504000Y-108489000D01*
X87504000Y-108235000D01*
X87524000Y-108235000D01*
X87524000Y-107122707D01*
X87477668Y-107092000D01*
X87524000Y-107061293D01*
X87524000Y-105949000D01*
X87778000Y-105949000D01*
X87778000Y-107061293D01*
X87824332Y-107092000D01*
X87778000Y-107122707D01*
X87778000Y-108235000D01*
X89032720Y-108235000D01*
X89155220Y-108018930D01*
X89155046Y-108013269D01*
X88918522Y-107521644D01*
X88511865Y-107157955D01*
X88323606Y-107092000D01*
X88511865Y-107026045D01*
X88918522Y-106662356D01*
X89155046Y-106170731D01*
X89155220Y-106165070D01*
X89032720Y-105949000D01*
X87778000Y-105949000D01*
X87524000Y-105949000D01*
X87504000Y-105949000D01*
X87504000Y-105695000D01*
X87524000Y-105695000D01*
X87524000Y-104582707D01*
X87477668Y-104552000D01*
X87524000Y-104521293D01*
X87524000Y-103409000D01*
X87778000Y-103409000D01*
X87778000Y-104521293D01*
X87824332Y-104552000D01*
X87778000Y-104582707D01*
X87778000Y-105695000D01*
X89032720Y-105695000D01*
X89155220Y-105478930D01*
X89155046Y-105473269D01*
X88918522Y-104981644D01*
X88511865Y-104617955D01*
X88323606Y-104552000D01*
X88511865Y-104486045D01*
X88918522Y-104122356D01*
X89155046Y-103630731D01*
X89155220Y-103625070D01*
X89032720Y-103409000D01*
X87778000Y-103409000D01*
X87524000Y-103409000D01*
X87504000Y-103409000D01*
X87504000Y-103155000D01*
X87524000Y-103155000D01*
X87524000Y-102042707D01*
X87477668Y-102012000D01*
X87524000Y-101981293D01*
X87524000Y-100869000D01*
X87778000Y-100869000D01*
X87778000Y-101981293D01*
X87824332Y-102012000D01*
X87778000Y-102042707D01*
X87778000Y-103155000D01*
X89032720Y-103155000D01*
X89155220Y-102938930D01*
X89155046Y-102933269D01*
X88918522Y-102441644D01*
X88511865Y-102077955D01*
X88323606Y-102012000D01*
X88511865Y-101946045D01*
X88918522Y-101582356D01*
X89155046Y-101090731D01*
X89155220Y-101085070D01*
X89032720Y-100869000D01*
X87778000Y-100869000D01*
X87524000Y-100869000D01*
X87504000Y-100869000D01*
X87504000Y-100615000D01*
X87524000Y-100615000D01*
X87524000Y-99502707D01*
X87477668Y-99472000D01*
X87524000Y-99441293D01*
X87524000Y-98329000D01*
X87778000Y-98329000D01*
X87778000Y-99441293D01*
X87824332Y-99472000D01*
X87778000Y-99502707D01*
X87778000Y-100615000D01*
X89032720Y-100615000D01*
X89155220Y-100398930D01*
X89155046Y-100393269D01*
X88918522Y-99901644D01*
X88511865Y-99537955D01*
X88323606Y-99472000D01*
X88511865Y-99406045D01*
X88918522Y-99042356D01*
X89155046Y-98550731D01*
X89155220Y-98545070D01*
X89032720Y-98329000D01*
X87778000Y-98329000D01*
X87524000Y-98329000D01*
X87504000Y-98329000D01*
X87504000Y-98075000D01*
X87524000Y-98075000D01*
X87524000Y-96962707D01*
X87477668Y-96932000D01*
X87524000Y-96901293D01*
X87524000Y-95789000D01*
X87778000Y-95789000D01*
X87778000Y-96901293D01*
X87824332Y-96932000D01*
X87778000Y-96962707D01*
X87778000Y-98075000D01*
X89032720Y-98075000D01*
X89155220Y-97858930D01*
X89155046Y-97853269D01*
X88918522Y-97361644D01*
X88511865Y-96997955D01*
X88323606Y-96932000D01*
X88511865Y-96866045D01*
X88918522Y-96502356D01*
X89155046Y-96010731D01*
X89155220Y-96005070D01*
X89032720Y-95789000D01*
X87778000Y-95789000D01*
X87524000Y-95789000D01*
X87504000Y-95789000D01*
X87504000Y-95535000D01*
X87524000Y-95535000D01*
X87524000Y-94422707D01*
X87486438Y-94397812D01*
X87524000Y-94360250D01*
X87524000Y-93249000D01*
X87778000Y-93249000D01*
X87778000Y-94360250D01*
X87815562Y-94397812D01*
X87778000Y-94422707D01*
X87778000Y-95535000D01*
X89032720Y-95535000D01*
X89155220Y-95318930D01*
X89155046Y-95313269D01*
X88918522Y-94821644D01*
X88580122Y-94519000D01*
X88689310Y-94519000D01*
X88922699Y-94422327D01*
X89101327Y-94243698D01*
X89198000Y-94010309D01*
X89198000Y-93407750D01*
X89039250Y-93249000D01*
X87778000Y-93249000D01*
X87524000Y-93249000D01*
X87504000Y-93249000D01*
X87504000Y-92995000D01*
X87524000Y-92995000D01*
X87524000Y-91883750D01*
X87778000Y-91883750D01*
X87778000Y-92995000D01*
X89039250Y-92995000D01*
X89198000Y-92836250D01*
X89198000Y-92233691D01*
X89101327Y-92000302D01*
X88922699Y-91821673D01*
X88689310Y-91725000D01*
X87936750Y-91725000D01*
X87778000Y-91883750D01*
X87524000Y-91883750D01*
X87365250Y-91725000D01*
X86612690Y-91725000D01*
X86602000Y-91729428D01*
X86602000Y-87898121D01*
X104281484Y-87898121D01*
X104506154Y-88272168D01*
X105489388Y-88670880D01*
X106550357Y-88662975D01*
X107493846Y-88272168D01*
X107718516Y-87898121D01*
X106000000Y-86179605D01*
X104281484Y-87898121D01*
X86602000Y-87898121D01*
X86602000Y-85489388D01*
X103329120Y-85489388D01*
X103337025Y-86550357D01*
X103727832Y-87493846D01*
X104101879Y-87718516D01*
X105820395Y-86000000D01*
X106179605Y-86000000D01*
X107898121Y-87718516D01*
X108272168Y-87493846D01*
X108670880Y-86510612D01*
X108662975Y-85449643D01*
X108595089Y-85285750D01*
X110763280Y-85285750D01*
X110763280Y-85975940D01*
X110859953Y-86209329D01*
X111038582Y-86387957D01*
X111271971Y-86484630D01*
X111711970Y-86484630D01*
X111870720Y-86325880D01*
X111870720Y-85127000D01*
X110922030Y-85127000D01*
X110763280Y-85285750D01*
X108595089Y-85285750D01*
X108272168Y-84506154D01*
X107898121Y-84281484D01*
X106179605Y-86000000D01*
X105820395Y-86000000D01*
X104101879Y-84281484D01*
X103727832Y-84506154D01*
X103329120Y-85489388D01*
X86602000Y-85489388D01*
X86602000Y-83602000D01*
X104809938Y-83602000D01*
X104506154Y-83727832D01*
G36*
X127711400Y-130964250D02*
X127870150Y-131123000D01*
X129083000Y-131123000D01*
X129083000Y-131103000D01*
X129337000Y-131103000D01*
X129337000Y-131123000D01*
X129357000Y-131123000D01*
X129357000Y-131377000D01*
X129337000Y-131377000D01*
X129337000Y-131397000D01*
X129083000Y-131397000D01*
X129083000Y-131377000D01*
X127870150Y-131377000D01*
X127711400Y-131535750D01*
X127711400Y-132392310D01*
X127713757Y-132398000D01*
X126035285Y-132398000D01*
X126324747Y-131964789D01*
X126430600Y-131432629D01*
X126430600Y-131067371D01*
X126324747Y-130535211D01*
X126319261Y-130527000D01*
X127711400Y-130527000D01*
X127711400Y-130964250D01*
X127711400Y-130964250D01*
G37*
X127711400Y-130964250D02*
X127870150Y-131123000D01*
X129083000Y-131123000D01*
X129083000Y-131103000D01*
X129337000Y-131103000D01*
X129337000Y-131123000D01*
X129357000Y-131123000D01*
X129357000Y-131377000D01*
X129337000Y-131377000D01*
X129337000Y-131397000D01*
X129083000Y-131397000D01*
X129083000Y-131377000D01*
X127870150Y-131377000D01*
X127711400Y-131535750D01*
X127711400Y-132392310D01*
X127713757Y-132398000D01*
X126035285Y-132398000D01*
X126324747Y-131964789D01*
X126430600Y-131432629D01*
X126430600Y-131067371D01*
X126324747Y-130535211D01*
X126319261Y-130527000D01*
X127711400Y-130527000D01*
X127711400Y-130964250D01*
G36*
X118461400Y-130964250D02*
X118620150Y-131123000D01*
X119833000Y-131123000D01*
X119833000Y-131103000D01*
X120087000Y-131103000D01*
X120087000Y-131123000D01*
X120107000Y-131123000D01*
X120107000Y-131377000D01*
X120087000Y-131377000D01*
X120087000Y-131397000D01*
X119833000Y-131397000D01*
X119833000Y-131377000D01*
X118620150Y-131377000D01*
X118461400Y-131535750D01*
X118461400Y-132392310D01*
X118463757Y-132398000D01*
X116785285Y-132398000D01*
X117074747Y-131964789D01*
X117180600Y-131432629D01*
X117180600Y-131067371D01*
X117074747Y-130535211D01*
X117069261Y-130527000D01*
X118461400Y-130527000D01*
X118461400Y-130964250D01*
X118461400Y-130964250D01*
G37*
X118461400Y-130964250D02*
X118620150Y-131123000D01*
X119833000Y-131123000D01*
X119833000Y-131103000D01*
X120087000Y-131103000D01*
X120087000Y-131123000D01*
X120107000Y-131123000D01*
X120107000Y-131377000D01*
X120087000Y-131377000D01*
X120087000Y-131397000D01*
X119833000Y-131397000D01*
X119833000Y-131377000D01*
X118620150Y-131377000D01*
X118461400Y-131535750D01*
X118461400Y-132392310D01*
X118463757Y-132398000D01*
X116785285Y-132398000D01*
X117074747Y-131964789D01*
X117180600Y-131432629D01*
X117180600Y-131067371D01*
X117074747Y-130535211D01*
X117069261Y-130527000D01*
X118461400Y-130527000D01*
X118461400Y-130964250D01*
G36*
X129750144Y-103370778D02*
X129749857Y-103699779D01*
X129875495Y-104003846D01*
X130107930Y-104236688D01*
X130304000Y-104318103D01*
X130304000Y-115720324D01*
X130257312Y-115766930D01*
X130131144Y-116070778D01*
X130130857Y-116399779D01*
X130256495Y-116703846D01*
X130488930Y-116936688D01*
X130792778Y-117062856D01*
X131121779Y-117063143D01*
X131223000Y-117021319D01*
X131223000Y-117250000D01*
X131301176Y-117643016D01*
X131523801Y-117976199D01*
X133273799Y-119726196D01*
X133273801Y-119726199D01*
X134235261Y-120687659D01*
X133757840Y-120782624D01*
X133306697Y-121084068D01*
X133020000Y-121513141D01*
X132733303Y-121084068D01*
X132282160Y-120782624D01*
X131750000Y-120676771D01*
X131217840Y-120782624D01*
X130766697Y-121084068D01*
X130708600Y-121171016D01*
X130708600Y-121107690D01*
X130611927Y-120874301D01*
X130433298Y-120695673D01*
X130199909Y-120599000D01*
X129495750Y-120599000D01*
X129337000Y-120757750D01*
X129337000Y-122123000D01*
X129357000Y-122123000D01*
X129357000Y-122377000D01*
X129337000Y-122377000D01*
X129337000Y-123742250D01*
X129344750Y-123750000D01*
X129337000Y-123757750D01*
X129337000Y-125123000D01*
X129357000Y-125123000D01*
X129357000Y-125377000D01*
X129337000Y-125377000D01*
X129337000Y-126742250D01*
X129344750Y-126750000D01*
X129337000Y-126757750D01*
X129337000Y-128123000D01*
X129357000Y-128123000D01*
X129357000Y-128377000D01*
X129337000Y-128377000D01*
X129337000Y-128397000D01*
X129083000Y-128397000D01*
X129083000Y-128377000D01*
X127870150Y-128377000D01*
X127711400Y-128535750D01*
X127711400Y-128973000D01*
X126319261Y-128973000D01*
X126324747Y-128964789D01*
X126430600Y-128432629D01*
X126430600Y-128067371D01*
X126324747Y-127535211D01*
X126023303Y-127084068D01*
X125572160Y-126782624D01*
X125408148Y-126750000D01*
X125572160Y-126717376D01*
X126023303Y-126415932D01*
X126324747Y-125964789D01*
X126410087Y-125535750D01*
X127711400Y-125535750D01*
X127711400Y-126392310D01*
X127808073Y-126625699D01*
X127932375Y-126750000D01*
X127808073Y-126874301D01*
X127711400Y-127107690D01*
X127711400Y-127964250D01*
X127870150Y-128123000D01*
X129083000Y-128123000D01*
X129083000Y-126757750D01*
X129075250Y-126750000D01*
X129083000Y-126742250D01*
X129083000Y-125377000D01*
X127870150Y-125377000D01*
X127711400Y-125535750D01*
X126410087Y-125535750D01*
X126430600Y-125432629D01*
X126430600Y-125067371D01*
X126324747Y-124535211D01*
X126023303Y-124084068D01*
X125572160Y-123782624D01*
X125408148Y-123750000D01*
X125572160Y-123717376D01*
X126023303Y-123415932D01*
X126324747Y-122964789D01*
X126410087Y-122535750D01*
X127711400Y-122535750D01*
X127711400Y-123392310D01*
X127808073Y-123625699D01*
X127932375Y-123750000D01*
X127808073Y-123874301D01*
X127711400Y-124107690D01*
X127711400Y-124964250D01*
X127870150Y-125123000D01*
X129083000Y-125123000D01*
X129083000Y-123757750D01*
X129075250Y-123750000D01*
X129083000Y-123742250D01*
X129083000Y-122377000D01*
X127870150Y-122377000D01*
X127711400Y-122535750D01*
X126410087Y-122535750D01*
X126430600Y-122432629D01*
X126430600Y-122067371D01*
X126324747Y-121535211D01*
X126039087Y-121107690D01*
X127711400Y-121107690D01*
X127711400Y-121964250D01*
X127870150Y-122123000D01*
X129083000Y-122123000D01*
X129083000Y-120757750D01*
X128924250Y-120599000D01*
X128220091Y-120599000D01*
X127986702Y-120695673D01*
X127808073Y-120874301D01*
X127711400Y-121107690D01*
X126039087Y-121107690D01*
X126023303Y-121084068D01*
X125572160Y-120782624D01*
X125040000Y-120676771D01*
X124507840Y-120782624D01*
X124056697Y-121084068D01*
X123770000Y-121513141D01*
X123483303Y-121084068D01*
X123393353Y-121023965D01*
X123226199Y-120773801D01*
X123226196Y-120773799D01*
X123172598Y-120720201D01*
X123217846Y-120701505D01*
X123450688Y-120469070D01*
X123520775Y-120300280D01*
X123584778Y-120326856D01*
X123913779Y-120327143D01*
X124217846Y-120201505D01*
X124450688Y-119969070D01*
X124576856Y-119665222D01*
X124576936Y-119573600D01*
X124584778Y-119576856D01*
X124913779Y-119577143D01*
X125217846Y-119451505D01*
X125450688Y-119219070D01*
X125576856Y-118915222D01*
X125576936Y-118823600D01*
X125584778Y-118826856D01*
X125913779Y-118827143D01*
X126217846Y-118701505D01*
X126450688Y-118469070D01*
X126576856Y-118165222D01*
X126576915Y-118097981D01*
X129360540Y-115314356D01*
X129502309Y-115102183D01*
X129552092Y-114851908D01*
X129552092Y-112515747D01*
X129598780Y-112469141D01*
X129724948Y-112165293D01*
X129725235Y-111836292D01*
X129599597Y-111532225D01*
X129367162Y-111299383D01*
X129063314Y-111173215D01*
X128734313Y-111172928D01*
X128499161Y-111270091D01*
X128263303Y-111172155D01*
X127934302Y-111171868D01*
X127686961Y-111274067D01*
X127463342Y-111181213D01*
X127134341Y-111180926D01*
X126847092Y-111299615D01*
X126664463Y-111223781D01*
X126528000Y-111223662D01*
X126528000Y-110902000D01*
X126527000Y-110896973D01*
X126527000Y-104000000D01*
X126467854Y-103702655D01*
X126299422Y-103450578D01*
X126125844Y-103277000D01*
X129789084Y-103277000D01*
X129750144Y-103370778D01*
X129750144Y-103370778D01*
G37*
X129750144Y-103370778D02*
X129749857Y-103699779D01*
X129875495Y-104003846D01*
X130107930Y-104236688D01*
X130304000Y-104318103D01*
X130304000Y-115720324D01*
X130257312Y-115766930D01*
X130131144Y-116070778D01*
X130130857Y-116399779D01*
X130256495Y-116703846D01*
X130488930Y-116936688D01*
X130792778Y-117062856D01*
X131121779Y-117063143D01*
X131223000Y-117021319D01*
X131223000Y-117250000D01*
X131301176Y-117643016D01*
X131523801Y-117976199D01*
X133273799Y-119726196D01*
X133273801Y-119726199D01*
X134235261Y-120687659D01*
X133757840Y-120782624D01*
X133306697Y-121084068D01*
X133020000Y-121513141D01*
X132733303Y-121084068D01*
X132282160Y-120782624D01*
X131750000Y-120676771D01*
X131217840Y-120782624D01*
X130766697Y-121084068D01*
X130708600Y-121171016D01*
X130708600Y-121107690D01*
X130611927Y-120874301D01*
X130433298Y-120695673D01*
X130199909Y-120599000D01*
X129495750Y-120599000D01*
X129337000Y-120757750D01*
X129337000Y-122123000D01*
X129357000Y-122123000D01*
X129357000Y-122377000D01*
X129337000Y-122377000D01*
X129337000Y-123742250D01*
X129344750Y-123750000D01*
X129337000Y-123757750D01*
X129337000Y-125123000D01*
X129357000Y-125123000D01*
X129357000Y-125377000D01*
X129337000Y-125377000D01*
X129337000Y-126742250D01*
X129344750Y-126750000D01*
X129337000Y-126757750D01*
X129337000Y-128123000D01*
X129357000Y-128123000D01*
X129357000Y-128377000D01*
X129337000Y-128377000D01*
X129337000Y-128397000D01*
X129083000Y-128397000D01*
X129083000Y-128377000D01*
X127870150Y-128377000D01*
X127711400Y-128535750D01*
X127711400Y-128973000D01*
X126319261Y-128973000D01*
X126324747Y-128964789D01*
X126430600Y-128432629D01*
X126430600Y-128067371D01*
X126324747Y-127535211D01*
X126023303Y-127084068D01*
X125572160Y-126782624D01*
X125408148Y-126750000D01*
X125572160Y-126717376D01*
X126023303Y-126415932D01*
X126324747Y-125964789D01*
X126410087Y-125535750D01*
X127711400Y-125535750D01*
X127711400Y-126392310D01*
X127808073Y-126625699D01*
X127932375Y-126750000D01*
X127808073Y-126874301D01*
X127711400Y-127107690D01*
X127711400Y-127964250D01*
X127870150Y-128123000D01*
X129083000Y-128123000D01*
X129083000Y-126757750D01*
X129075250Y-126750000D01*
X129083000Y-126742250D01*
X129083000Y-125377000D01*
X127870150Y-125377000D01*
X127711400Y-125535750D01*
X126410087Y-125535750D01*
X126430600Y-125432629D01*
X126430600Y-125067371D01*
X126324747Y-124535211D01*
X126023303Y-124084068D01*
X125572160Y-123782624D01*
X125408148Y-123750000D01*
X125572160Y-123717376D01*
X126023303Y-123415932D01*
X126324747Y-122964789D01*
X126410087Y-122535750D01*
X127711400Y-122535750D01*
X127711400Y-123392310D01*
X127808073Y-123625699D01*
X127932375Y-123750000D01*
X127808073Y-123874301D01*
X127711400Y-124107690D01*
X127711400Y-124964250D01*
X127870150Y-125123000D01*
X129083000Y-125123000D01*
X129083000Y-123757750D01*
X129075250Y-123750000D01*
X129083000Y-123742250D01*
X129083000Y-122377000D01*
X127870150Y-122377000D01*
X127711400Y-122535750D01*
X126410087Y-122535750D01*
X126430600Y-122432629D01*
X126430600Y-122067371D01*
X126324747Y-121535211D01*
X126039087Y-121107690D01*
X127711400Y-121107690D01*
X127711400Y-121964250D01*
X127870150Y-122123000D01*
X129083000Y-122123000D01*
X129083000Y-120757750D01*
X128924250Y-120599000D01*
X128220091Y-120599000D01*
X127986702Y-120695673D01*
X127808073Y-120874301D01*
X127711400Y-121107690D01*
X126039087Y-121107690D01*
X126023303Y-121084068D01*
X125572160Y-120782624D01*
X125040000Y-120676771D01*
X124507840Y-120782624D01*
X124056697Y-121084068D01*
X123770000Y-121513141D01*
X123483303Y-121084068D01*
X123393353Y-121023965D01*
X123226199Y-120773801D01*
X123226196Y-120773799D01*
X123172598Y-120720201D01*
X123217846Y-120701505D01*
X123450688Y-120469070D01*
X123520775Y-120300280D01*
X123584778Y-120326856D01*
X123913779Y-120327143D01*
X124217846Y-120201505D01*
X124450688Y-119969070D01*
X124576856Y-119665222D01*
X124576936Y-119573600D01*
X124584778Y-119576856D01*
X124913779Y-119577143D01*
X125217846Y-119451505D01*
X125450688Y-119219070D01*
X125576856Y-118915222D01*
X125576936Y-118823600D01*
X125584778Y-118826856D01*
X125913779Y-118827143D01*
X126217846Y-118701505D01*
X126450688Y-118469070D01*
X126576856Y-118165222D01*
X126576915Y-118097981D01*
X129360540Y-115314356D01*
X129502309Y-115102183D01*
X129552092Y-114851908D01*
X129552092Y-112515747D01*
X129598780Y-112469141D01*
X129724948Y-112165293D01*
X129725235Y-111836292D01*
X129599597Y-111532225D01*
X129367162Y-111299383D01*
X129063314Y-111173215D01*
X128734313Y-111172928D01*
X128499161Y-111270091D01*
X128263303Y-111172155D01*
X127934302Y-111171868D01*
X127686961Y-111274067D01*
X127463342Y-111181213D01*
X127134341Y-111180926D01*
X126847092Y-111299615D01*
X126664463Y-111223781D01*
X126528000Y-111223662D01*
X126528000Y-110902000D01*
X126527000Y-110896973D01*
X126527000Y-104000000D01*
X126467854Y-103702655D01*
X126299422Y-103450578D01*
X126125844Y-103277000D01*
X129789084Y-103277000D01*
X129750144Y-103370778D01*
G36*
X112266697Y-126415932D02*
X112717840Y-126717376D01*
X112881852Y-126750000D01*
X112717840Y-126782624D01*
X112266697Y-127084068D01*
X112208600Y-127171016D01*
X112208600Y-127107690D01*
X112111927Y-126874301D01*
X111987625Y-126750000D01*
X112111927Y-126625699D01*
X112208600Y-126392310D01*
X112208600Y-126328984D01*
X112266697Y-126415932D01*
X112266697Y-126415932D01*
G37*
X112266697Y-126415932D02*
X112717840Y-126717376D01*
X112881852Y-126750000D01*
X112717840Y-126782624D01*
X112266697Y-127084068D01*
X112208600Y-127171016D01*
X112208600Y-127107690D01*
X112111927Y-126874301D01*
X111987625Y-126750000D01*
X112111927Y-126625699D01*
X112208600Y-126392310D01*
X112208600Y-126328984D01*
X112266697Y-126415932D01*
G36*
X123037062Y-83612043D02*
X122858433Y-83790671D01*
X122761760Y-84024060D01*
X122761760Y-84714250D01*
X122920510Y-84873000D01*
X123869200Y-84873000D01*
X123869200Y-84853000D01*
X124123200Y-84853000D01*
X124123200Y-84873000D01*
X124143200Y-84873000D01*
X124143200Y-85127000D01*
X124123200Y-85127000D01*
X124123200Y-85147000D01*
X123869200Y-85147000D01*
X123869200Y-85127000D01*
X122920510Y-85127000D01*
X122761760Y-85285750D01*
X122761760Y-85975940D01*
X122858433Y-86209329D01*
X122872104Y-86223000D01*
X120250000Y-86223000D01*
X119856984Y-86301176D01*
X119523801Y-86523801D01*
X119523799Y-86523804D01*
X117125000Y-88922602D01*
X117027760Y-88825362D01*
X117027760Y-85811069D01*
X117203227Y-86073673D01*
X117568670Y-86317855D01*
X117999740Y-86403600D01*
X118430810Y-86317855D01*
X118796253Y-86073673D01*
X119040435Y-85708230D01*
X119126180Y-85277160D01*
X119126180Y-84722840D01*
X119040435Y-84291770D01*
X118796253Y-83926327D01*
X118430810Y-83682145D01*
X118027893Y-83602000D01*
X123061308Y-83602000D01*
X123037062Y-83612043D01*
X123037062Y-83612043D01*
G37*
X123037062Y-83612043D02*
X122858433Y-83790671D01*
X122761760Y-84024060D01*
X122761760Y-84714250D01*
X122920510Y-84873000D01*
X123869200Y-84873000D01*
X123869200Y-84853000D01*
X124123200Y-84853000D01*
X124123200Y-84873000D01*
X124143200Y-84873000D01*
X124143200Y-85127000D01*
X124123200Y-85127000D01*
X124123200Y-85147000D01*
X123869200Y-85147000D01*
X123869200Y-85127000D01*
X122920510Y-85127000D01*
X122761760Y-85285750D01*
X122761760Y-85975940D01*
X122858433Y-86209329D01*
X122872104Y-86223000D01*
X120250000Y-86223000D01*
X119856984Y-86301176D01*
X119523801Y-86523801D01*
X119523799Y-86523804D01*
X117125000Y-88922602D01*
X117027760Y-88825362D01*
X117027760Y-85811069D01*
X117203227Y-86073673D01*
X117568670Y-86317855D01*
X117999740Y-86403600D01*
X118430810Y-86317855D01*
X118796253Y-86073673D01*
X119040435Y-85708230D01*
X119126180Y-85277160D01*
X119126180Y-84722840D01*
X119040435Y-84291770D01*
X118796253Y-83926327D01*
X118430810Y-83682145D01*
X118027893Y-83602000D01*
X123061308Y-83602000D01*
X123037062Y-83612043D01*
M02*
