G04 #@! TF.FileFunction,Soldermask,Top*
%FSLAX46Y46*%
G04 Gerber Fmt 4.6, Leading zero omitted, Abs format (unit mm)*
G04 Created by KiCad (PCBNEW (2015-09-15 BZR 6201)-product) date tis 17 nov 2015 13:25:14*
%MOMM*%
G01*
G04 APERTURE LIST*
%ADD10C,0.100000*%
%ADD11O,0.850000X0.290000*%
%ADD12O,0.290000X0.850000*%
%ADD13R,1.675000X1.675000*%
%ADD14R,2.499360X1.950720*%
%ADD15R,1.950720X2.499360*%
%ADD16R,0.797560X0.797560*%
%ADD17C,2.300000*%
%ADD18R,5.295900X1.998980*%
%ADD19R,1.198880X1.699260*%
%ADD20O,1.198880X1.699260*%
%ADD21R,1.699260X1.198880*%
%ADD22O,1.699260X1.198880*%
%ADD23R,1.727200X2.032000*%
%ADD24O,1.727200X2.032000*%
%ADD25R,0.750000X0.800000*%
%ADD26R,1.250000X1.000000*%
%ADD27R,0.800000X0.750000*%
%ADD28R,0.600000X0.500000*%
%ADD29R,0.500000X0.600000*%
%ADD30R,0.900000X0.500000*%
%ADD31R,2.301240X0.500380*%
%ADD32R,2.499360X1.998980*%
%ADD33C,0.899160*%
%ADD34R,0.500000X0.900000*%
%ADD35R,1.824000X1.524000*%
%ADD36O,1.824000X1.524000*%
%ADD37R,0.450000X1.450000*%
%ADD38R,3.657600X2.032000*%
%ADD39R,1.016000X2.032000*%
%ADD40R,0.599440X1.399540*%
%ADD41R,0.280000X1.500000*%
%ADD42R,1.500000X0.280000*%
%ADD43R,1.800860X1.198880*%
%ADD44C,4.064000*%
G04 APERTURE END LIST*
D10*
D11*
X144200000Y-88250000D03*
X144200000Y-87750000D03*
X144200000Y-87250000D03*
X144200000Y-86750000D03*
X144200000Y-86250000D03*
X144200000Y-85750000D03*
D12*
X143500000Y-85050000D03*
X143000000Y-85050000D03*
X142500000Y-85050000D03*
X142000000Y-85050000D03*
X141500000Y-85050000D03*
X141000000Y-85050000D03*
D11*
X140300000Y-85750000D03*
X140300000Y-86250000D03*
X140300000Y-86750000D03*
X140300000Y-87250000D03*
X140300000Y-87750000D03*
X140300000Y-88250000D03*
D12*
X141000000Y-88950000D03*
X141500000Y-88950000D03*
X142000000Y-88950000D03*
X142500000Y-88950000D03*
X143000000Y-88950000D03*
X143500000Y-88950000D03*
D11*
X105468000Y-121546000D03*
X105468000Y-121046000D03*
X105468000Y-120546000D03*
X105468000Y-120046000D03*
X105468000Y-119546000D03*
X105468000Y-119046000D03*
X105468000Y-118546000D03*
D12*
X104518000Y-117596000D03*
X104018000Y-117596000D03*
X103518000Y-117596000D03*
X103018000Y-117596000D03*
X102518000Y-117596000D03*
X102018000Y-117596000D03*
X101518000Y-117596000D03*
D11*
X100568000Y-118546000D03*
X100568000Y-119046000D03*
X100568000Y-119546000D03*
X100568000Y-120046000D03*
X100568000Y-120546000D03*
X100568000Y-121046000D03*
X100568000Y-121546000D03*
D12*
X101518000Y-122496000D03*
X102018000Y-122496000D03*
X102518000Y-122496000D03*
X103018000Y-122496000D03*
X103518000Y-122496000D03*
X104018000Y-122496000D03*
X104518000Y-122496000D03*
D13*
X102180500Y-119208500D03*
X102180500Y-120883500D03*
X103855500Y-119208500D03*
X103855500Y-120883500D03*
D14*
X100250000Y-101450600D03*
X100250000Y-104549400D03*
D15*
X110700600Y-93750000D03*
X113799400Y-93750000D03*
D16*
X140250000Y-92499300D03*
X140250000Y-91000700D03*
X138500000Y-92499300D03*
X138500000Y-91000700D03*
D17*
X91977000Y-127539200D03*
X94517000Y-124999200D03*
X89437000Y-124999200D03*
X89437000Y-130079200D03*
X94517000Y-130079200D03*
D18*
X105750000Y-104747520D03*
X105750000Y-101252480D03*
D19*
X111997720Y-85000000D03*
D20*
X116000760Y-85000000D03*
X113999240Y-85000000D03*
X117999740Y-85000000D03*
D19*
X123996200Y-85000000D03*
D20*
X127999240Y-85000000D03*
X125997720Y-85000000D03*
X129998220Y-85000000D03*
X131999740Y-85000000D03*
X134001260Y-85000000D03*
D21*
X139000000Y-130502020D03*
D22*
X139000000Y-126498980D03*
X139000000Y-128500500D03*
X139000000Y-124500000D03*
X139000000Y-122498480D03*
X139000000Y-120496960D03*
D21*
X145000000Y-95497720D03*
D22*
X145000000Y-99500760D03*
X145000000Y-97499240D03*
X145000000Y-101499740D03*
D21*
X151000000Y-91496200D03*
D22*
X151000000Y-95499240D03*
X151000000Y-93497720D03*
X151000000Y-97498220D03*
X151000000Y-99499740D03*
X151000000Y-101501260D03*
D21*
X151000000Y-117997720D03*
D22*
X151000000Y-122000760D03*
X151000000Y-119999240D03*
X151000000Y-123999740D03*
D23*
X110710000Y-128250000D03*
D24*
X113250000Y-128250000D03*
X115790000Y-128250000D03*
D23*
X110710000Y-131250000D03*
D24*
X113250000Y-131250000D03*
X115790000Y-131250000D03*
D23*
X110710000Y-125250000D03*
D24*
X113250000Y-125250000D03*
X115790000Y-125250000D03*
D23*
X110710000Y-122250000D03*
D24*
X113250000Y-122250000D03*
X115790000Y-122250000D03*
D23*
X119960000Y-131250000D03*
D24*
X122500000Y-131250000D03*
X125040000Y-131250000D03*
D23*
X119960000Y-128250000D03*
D24*
X122500000Y-128250000D03*
X125040000Y-128250000D03*
D23*
X119960000Y-125250000D03*
D24*
X122500000Y-125250000D03*
X125040000Y-125250000D03*
D23*
X119960000Y-122250000D03*
D24*
X122500000Y-122250000D03*
X125040000Y-122250000D03*
D23*
X129210000Y-131250000D03*
D24*
X131750000Y-131250000D03*
X134290000Y-131250000D03*
D23*
X129210000Y-128250000D03*
D24*
X131750000Y-128250000D03*
X134290000Y-128250000D03*
D23*
X129210000Y-125250000D03*
D24*
X131750000Y-125250000D03*
X134290000Y-125250000D03*
D23*
X129210000Y-122250000D03*
D24*
X131750000Y-122250000D03*
X134290000Y-122250000D03*
D16*
X104250700Y-108500000D03*
X105749300Y-108500000D03*
D25*
X119250000Y-95500000D03*
X119250000Y-94000000D03*
D26*
X102250000Y-95000000D03*
X102250000Y-93000000D03*
X107750000Y-91000000D03*
X107750000Y-93000000D03*
D27*
X104750000Y-99250000D03*
X106250000Y-99250000D03*
D25*
X98750000Y-109000000D03*
X98750000Y-107500000D03*
X111500000Y-97500000D03*
X111500000Y-99000000D03*
X109750000Y-97500000D03*
X109750000Y-99000000D03*
X116500000Y-92250000D03*
X116500000Y-93750000D03*
X106250000Y-126250000D03*
X106250000Y-124750000D03*
D27*
X108250000Y-115000000D03*
X106750000Y-115000000D03*
D28*
X98996000Y-119411000D03*
X97896000Y-119411000D03*
X98996000Y-120554000D03*
X97896000Y-120554000D03*
D27*
X97500000Y-115000000D03*
X99000000Y-115000000D03*
X106750000Y-112250000D03*
X108250000Y-112250000D03*
D25*
X97500000Y-126250000D03*
X97500000Y-124750000D03*
D29*
X97176000Y-118353000D03*
X97176000Y-119453000D03*
D27*
X99000000Y-112250000D03*
X97500000Y-112250000D03*
D25*
X99500000Y-126250000D03*
X99500000Y-124750000D03*
D28*
X96118000Y-120554000D03*
X97218000Y-120554000D03*
D29*
X94898000Y-119674000D03*
X94898000Y-120774000D03*
X92485000Y-119674000D03*
X92485000Y-120774000D03*
D27*
X136500000Y-115000000D03*
X138000000Y-115000000D03*
X138500000Y-84500000D03*
X137000000Y-84500000D03*
D25*
X142250000Y-91000000D03*
X142250000Y-92500000D03*
X146000000Y-84500000D03*
X146000000Y-86000000D03*
D27*
X138500000Y-86250000D03*
X137000000Y-86250000D03*
D25*
X146000000Y-88000000D03*
X146000000Y-89500000D03*
X134750000Y-92500000D03*
X134750000Y-91000000D03*
D27*
X120250000Y-115250000D03*
X118750000Y-115250000D03*
X136500000Y-116750000D03*
X138000000Y-116750000D03*
D25*
X126750000Y-90750000D03*
X126750000Y-92250000D03*
X126750000Y-95500000D03*
X126750000Y-94000000D03*
X123000000Y-94000000D03*
X123000000Y-95500000D03*
X121000000Y-95500000D03*
X121000000Y-94000000D03*
X125000000Y-94000000D03*
X125000000Y-95500000D03*
D27*
X118750000Y-113750000D03*
X120250000Y-113750000D03*
D25*
X134750000Y-94000000D03*
X134750000Y-95500000D03*
D27*
X138000000Y-98750000D03*
X136500000Y-98750000D03*
X119500000Y-98750000D03*
X121000000Y-98750000D03*
D30*
X125000000Y-90750000D03*
X125000000Y-92250000D03*
D31*
X144996580Y-111653840D03*
X144996580Y-110853740D03*
X144996580Y-110053640D03*
X144996580Y-109253540D03*
X144996580Y-108453440D03*
D32*
X145095640Y-114503720D03*
X150594740Y-114503720D03*
X145095640Y-105603560D03*
X150594740Y-105603560D03*
D33*
X147595000Y-112253280D03*
X147595000Y-107854000D03*
D30*
X119250000Y-90750000D03*
X119250000Y-92250000D03*
X121000000Y-92250000D03*
X121000000Y-90750000D03*
X140250000Y-94000000D03*
X140250000Y-95500000D03*
X138500000Y-94000000D03*
X138500000Y-95500000D03*
D34*
X141750000Y-111750000D03*
X140250000Y-111750000D03*
X141750000Y-110000000D03*
X140250000Y-110000000D03*
D30*
X107750000Y-97000000D03*
X107750000Y-98500000D03*
X107750000Y-94250000D03*
X107750000Y-95750000D03*
X104250000Y-126250000D03*
X104250000Y-124750000D03*
X101500000Y-124750000D03*
X101500000Y-126250000D03*
X144250000Y-126000000D03*
X144250000Y-124500000D03*
X147000000Y-124500000D03*
X147000000Y-126000000D03*
X123000000Y-92250000D03*
X123000000Y-90750000D03*
D34*
X102750000Y-108500000D03*
X101250000Y-108500000D03*
D30*
X141000000Y-100750000D03*
X141000000Y-102250000D03*
X141000000Y-98750000D03*
X141000000Y-97250000D03*
D35*
X87651000Y-93122000D03*
D36*
X95271000Y-93122000D03*
X87651000Y-95662000D03*
X95271000Y-95662000D03*
X87651000Y-98202000D03*
X95271000Y-98202000D03*
X87651000Y-100742000D03*
X95271000Y-100742000D03*
X87651000Y-103282000D03*
X95271000Y-103282000D03*
X87651000Y-105822000D03*
X95271000Y-105822000D03*
X87651000Y-108362000D03*
X95271000Y-108362000D03*
X87651000Y-110902000D03*
X95271000Y-110902000D03*
D37*
X105975000Y-93050000D03*
X105325000Y-93050000D03*
X104675000Y-93050000D03*
X104025000Y-93050000D03*
X104025000Y-97450000D03*
X104675000Y-97450000D03*
X105325000Y-97450000D03*
X105975000Y-97450000D03*
D38*
X112750000Y-108052000D03*
D39*
X112750000Y-101448000D03*
X110464000Y-101448000D03*
X115036000Y-101448000D03*
D40*
X146905000Y-122917000D03*
X146905000Y-117583000D03*
X145635000Y-122917000D03*
X144365000Y-122917000D03*
X143095000Y-122917000D03*
X145635000Y-117583000D03*
X144365000Y-117583000D03*
X143095000Y-117583000D03*
D41*
X134750000Y-98600000D03*
X134250000Y-98600000D03*
X133750000Y-98600000D03*
X133250000Y-98600000D03*
X132750000Y-98600000D03*
X132250000Y-98600000D03*
X131750000Y-98600000D03*
X131250000Y-98600000D03*
X130750000Y-98600000D03*
X130250000Y-98600000D03*
X129750000Y-98600000D03*
X129250000Y-98600000D03*
X128750000Y-98600000D03*
X128250000Y-98600000D03*
X127750000Y-98600000D03*
X127250000Y-98600000D03*
X126750000Y-98600000D03*
X126250000Y-98600000D03*
X125750000Y-98600000D03*
X125250000Y-98600000D03*
X124750000Y-98600000D03*
X124250000Y-98600000D03*
X123750000Y-98600000D03*
X123250000Y-98600000D03*
X122750000Y-98600000D03*
D42*
X120850000Y-100500000D03*
X120850000Y-101000000D03*
X120850000Y-101500000D03*
X120850000Y-102000000D03*
X120850000Y-102500000D03*
X120850000Y-103000000D03*
X120850000Y-103500000D03*
X120850000Y-104000000D03*
X120850000Y-104500000D03*
X120850000Y-105000000D03*
X120850000Y-105500000D03*
X120850000Y-106000000D03*
X120850000Y-106500000D03*
X120850000Y-107000000D03*
X120850000Y-107500000D03*
X120850000Y-108000000D03*
X120850000Y-108500000D03*
X120850000Y-109000000D03*
X120850000Y-109500000D03*
X120850000Y-110000000D03*
X120850000Y-110500000D03*
X120850000Y-111000000D03*
X120850000Y-111500000D03*
X120850000Y-112000000D03*
X120850000Y-112500000D03*
D41*
X122750000Y-114400000D03*
X123250000Y-114400000D03*
X123750000Y-114400000D03*
X124250000Y-114400000D03*
X124750000Y-114400000D03*
X125250000Y-114400000D03*
X125750000Y-114400000D03*
X126250000Y-114400000D03*
X126750000Y-114400000D03*
X127250000Y-114400000D03*
X127750000Y-114400000D03*
X128250000Y-114400000D03*
X128750000Y-114400000D03*
X129250000Y-114400000D03*
X129750000Y-114400000D03*
X130250000Y-114400000D03*
X130750000Y-114400000D03*
X131250000Y-114400000D03*
X131750000Y-114400000D03*
X132250000Y-114400000D03*
X132750000Y-114400000D03*
X133250000Y-114400000D03*
X133750000Y-114400000D03*
X134250000Y-114400000D03*
X134750000Y-114400000D03*
D42*
X136650000Y-112500000D03*
X136650000Y-112000000D03*
X136650000Y-111500000D03*
X136650000Y-111000000D03*
X136650000Y-110500000D03*
X136650000Y-110000000D03*
X136650000Y-109500000D03*
X136650000Y-109000000D03*
X136650000Y-108500000D03*
X136650000Y-108000000D03*
X136650000Y-107500000D03*
X136650000Y-107000000D03*
X136650000Y-106500000D03*
X136650000Y-106000000D03*
X136650000Y-105500000D03*
X136650000Y-105000000D03*
X136650000Y-104500000D03*
X136650000Y-104000000D03*
X136650000Y-103500000D03*
X136650000Y-103000000D03*
X136650000Y-102500000D03*
X136650000Y-102000000D03*
X136650000Y-101500000D03*
X136650000Y-101000000D03*
X136650000Y-100500000D03*
D43*
X104659920Y-114799680D03*
X104659920Y-112300320D03*
X100860080Y-112300320D03*
X100860080Y-114799680D03*
X132649920Y-95499680D03*
X132649920Y-93000320D03*
X128850080Y-93000320D03*
X128850080Y-95499680D03*
D44*
X150000000Y-86000000D03*
X150000000Y-130000000D03*
X106000000Y-130000000D03*
X106000000Y-86000000D03*
M02*
