G04 #@! TF.FileFunction,Soldermask,Bot*
%FSLAX46Y46*%
G04 Gerber Fmt 4.6, Leading zero omitted, Abs format (unit mm)*
G04 Created by KiCad (PCBNEW (2015-09-15 BZR 6201)-product) date tis 17 nov 2015 13:25:14*
%MOMM*%
G01*
G04 APERTURE LIST*
%ADD10C,0.100000*%
%ADD11C,2.300000*%
%ADD12R,1.198880X1.699260*%
%ADD13O,1.198880X1.699260*%
%ADD14R,1.699260X1.198880*%
%ADD15O,1.699260X1.198880*%
%ADD16R,1.727200X2.032000*%
%ADD17O,1.727200X2.032000*%
%ADD18C,0.899160*%
%ADD19R,1.824000X1.524000*%
%ADD20O,1.824000X1.524000*%
%ADD21C,4.064000*%
G04 APERTURE END LIST*
D10*
D11*
X91977000Y-127539200D03*
X94517000Y-124999200D03*
X89437000Y-124999200D03*
X89437000Y-130079200D03*
X94517000Y-130079200D03*
D12*
X111997720Y-85000000D03*
D13*
X116000760Y-85000000D03*
X113999240Y-85000000D03*
X117999740Y-85000000D03*
D12*
X123996200Y-85000000D03*
D13*
X127999240Y-85000000D03*
X125997720Y-85000000D03*
X129998220Y-85000000D03*
X131999740Y-85000000D03*
X134001260Y-85000000D03*
D14*
X139000000Y-130502020D03*
D15*
X139000000Y-126498980D03*
X139000000Y-128500500D03*
X139000000Y-124500000D03*
X139000000Y-122498480D03*
X139000000Y-120496960D03*
D14*
X145000000Y-95497720D03*
D15*
X145000000Y-99500760D03*
X145000000Y-97499240D03*
X145000000Y-101499740D03*
D14*
X151000000Y-91496200D03*
D15*
X151000000Y-95499240D03*
X151000000Y-93497720D03*
X151000000Y-97498220D03*
X151000000Y-99499740D03*
X151000000Y-101501260D03*
D14*
X151000000Y-117997720D03*
D15*
X151000000Y-122000760D03*
X151000000Y-119999240D03*
X151000000Y-123999740D03*
D16*
X110710000Y-128250000D03*
D17*
X113250000Y-128250000D03*
X115790000Y-128250000D03*
D16*
X110710000Y-131250000D03*
D17*
X113250000Y-131250000D03*
X115790000Y-131250000D03*
D16*
X110710000Y-125250000D03*
D17*
X113250000Y-125250000D03*
X115790000Y-125250000D03*
D16*
X110710000Y-122250000D03*
D17*
X113250000Y-122250000D03*
X115790000Y-122250000D03*
D16*
X119960000Y-131250000D03*
D17*
X122500000Y-131250000D03*
X125040000Y-131250000D03*
D16*
X119960000Y-128250000D03*
D17*
X122500000Y-128250000D03*
X125040000Y-128250000D03*
D16*
X119960000Y-125250000D03*
D17*
X122500000Y-125250000D03*
X125040000Y-125250000D03*
D16*
X119960000Y-122250000D03*
D17*
X122500000Y-122250000D03*
X125040000Y-122250000D03*
D16*
X129210000Y-131250000D03*
D17*
X131750000Y-131250000D03*
X134290000Y-131250000D03*
D16*
X129210000Y-128250000D03*
D17*
X131750000Y-128250000D03*
X134290000Y-128250000D03*
D16*
X129210000Y-125250000D03*
D17*
X131750000Y-125250000D03*
X134290000Y-125250000D03*
D16*
X129210000Y-122250000D03*
D17*
X131750000Y-122250000D03*
X134290000Y-122250000D03*
D18*
X147595000Y-112253280D03*
X147595000Y-107854000D03*
D19*
X87651000Y-93122000D03*
D20*
X95271000Y-93122000D03*
X87651000Y-95662000D03*
X95271000Y-95662000D03*
X87651000Y-98202000D03*
X95271000Y-98202000D03*
X87651000Y-100742000D03*
X95271000Y-100742000D03*
X87651000Y-103282000D03*
X95271000Y-103282000D03*
X87651000Y-105822000D03*
X95271000Y-105822000D03*
X87651000Y-108362000D03*
X95271000Y-108362000D03*
X87651000Y-110902000D03*
X95271000Y-110902000D03*
D21*
X150000000Y-86000000D03*
X150000000Y-130000000D03*
X106000000Y-130000000D03*
X106000000Y-86000000D03*
M02*
