M48
METRIC,TZ
T1C0.300
T2C0.701
T3C0.762
T4C1.016
T5C1.350
T6C3.048
%
G90
G05
T1
X89.Y-120.
X89.Y-121.5
X89.Y-123.
X89.Y-127.
X89.Y-128.
X90.5Y-120.
X91.5Y-130.5
X92.104Y-118.827
X92.5Y-130.5
X92.866Y-118.827
X93.628Y-118.827
X94.39Y-118.827
X95.Y-127.
X95.Y-128.
X96.287Y-123.729
X96.922Y-123.729
X97.438Y-117.557
X97.5Y-127.25
X97.557Y-123.729
X99.Y-116.25
X99.5Y-123.75
X99.5Y-127.25
X100.Y-99.5
X101.Y-99.5
X101.75Y-96.5
X101.75Y-97.5
X102.Y-103.25
X102.25Y-119.25
X102.256Y-120.808
X102.75Y-96.5
X102.75Y-97.5
X102.75Y-98.5
X102.75Y-126.246
X103.25Y-115.75
X103.5Y-119.25
X103.526Y-120.808
X105.5Y-96.
X106.75Y-114.
X106.75Y-117.25
X107.5Y-123.25
X108.077Y-125.603
X108.25Y-99.5
X108.25Y-122.5
X109.Y-96.5
X109.25Y-112.25
X109.25Y-115.
X109.75Y-91.25
X110.5Y-103.75
X111.Y-91.25
X111.25Y-112.
X112.25Y-91.25
X112.5Y-96.5
X113.686Y-91.852
X114.5Y-103.75
X114.5Y-104.5
X115.5Y-103.75
X115.5Y-104.5
X115.75Y-118.75
X115.75Y-120.25
X116.Y-115.25
X117.Y-95.
X117.Y-96.
X117.5Y-115.5
X117.75Y-91.75
X117.75Y-102.25
X117.75Y-117.75
X119.25Y-93.25
X119.25Y-112.5
X119.5Y-97.5
X119.607Y-100.919
X121.Y-93.25
X121.Y-113.75
X121.793Y-98.806
X121.941Y-89.82
X122.5Y-111.25
X122.75Y-120.
X123.Y-93.25
X123.75Y-105.5
X123.75Y-106.5
X123.75Y-107.5
X123.75Y-108.5
X123.75Y-109.5
X123.75Y-110.5
X123.75Y-111.5
X123.75Y-112.75
X123.75Y-119.5
X124.75Y-107.5
X124.75Y-108.5
X124.75Y-109.5
X124.75Y-110.5
X124.75Y-118.75
X124.862Y-93.
X125.25Y-99.75
X125.75Y-89.75
X125.75Y-96.5
X125.75Y-118.
X126.499Y-112.051
X126.5Y-101.25
X126.64Y-96.932
X126.75Y-107.5
X126.75Y-108.5
X126.75Y-109.5
X126.767Y-92.995
X127.298Y-112.008
X127.5Y-101.25
X127.75Y-89.75
X128.Y-90.75
X128.098Y-111.999
X128.5Y-101.25
X128.898Y-112.
X129.Y-90.75
X129.5Y-101.25
X130.Y-90.75
X130.Y-107.5
X130.Y-108.5
X130.Y-109.5
X130.577Y-103.536
X130.958Y-116.236
X131.Y-90.75
X131.Y-100.25
X133.5Y-91.
X133.5Y-103.5
X133.5Y-107.5
X133.5Y-108.5
X133.5Y-109.5
X133.5Y-110.5
X133.5Y-111.5
X134.5Y-103.5
X134.5Y-104.5
X135.Y-112.25
X135.Y-116.
X135.5Y-115.
X135.75Y-96.75
X135.75Y-98.75
X136.Y-94.
X137.75Y-97.5
X138.Y-109.25
X138.Y-110.25
X138.176Y-100.584
X138.324Y-111.156
X138.5Y-87.25
X138.557Y-103.124
X138.97Y-113.53
X139.Y-116.
X139.25Y-88.
X139.25Y-88.75
X139.5Y-112.5
X140.Y-99.75
X140.483Y-115.22
X141.25Y-114.5
X141.372Y-95.281
X142.5Y-108.5
X142.515Y-114.712
X143.Y-97.
X144.75Y-89.75
X145.5Y-119.
X145.75Y-86.75
X145.75Y-126.308
X146.833Y-84.486
X146.833Y-87.915
T2
X111.998Y-85.
X113.999Y-85.
X116.001Y-85.
X118.Y-85.
X123.996Y-85.
X125.998Y-85.
X127.999Y-85.
X129.998Y-85.
X132.Y-85.
X134.001Y-85.
X139.Y-120.497
X139.Y-122.498
X139.Y-124.5
X139.Y-126.499
X139.Y-128.5
X139.Y-130.502
X145.Y-95.498
X145.Y-97.499
X145.Y-99.501
X145.Y-101.5
X151.Y-91.496
X151.Y-93.498
X151.Y-95.499
X151.Y-97.498
X151.Y-99.5
X151.Y-101.501
X151.Y-117.998
X151.Y-119.999
X151.Y-122.001
X151.Y-124.
T3
X87.651Y-93.122
X87.651Y-95.662
X87.651Y-98.202
X87.651Y-100.742
X87.651Y-103.282
X87.651Y-105.822
X87.651Y-108.362
X87.651Y-110.902
X95.271Y-93.122
X95.271Y-95.662
X95.271Y-98.202
X95.271Y-100.742
X95.271Y-103.282
X95.271Y-105.822
X95.271Y-108.362
X95.271Y-110.902
T4
X110.71Y-122.25
X110.71Y-125.25
X110.71Y-128.25
X110.71Y-131.25
X113.25Y-122.25
X113.25Y-125.25
X113.25Y-128.25
X113.25Y-131.25
X115.79Y-122.25
X115.79Y-125.25
X115.79Y-128.25
X115.79Y-131.25
X119.96Y-122.25
X119.96Y-125.25
X119.96Y-128.25
X119.96Y-131.25
X122.5Y-122.25
X122.5Y-125.25
X122.5Y-128.25
X122.5Y-131.25
X125.04Y-122.25
X125.04Y-125.25
X125.04Y-128.25
X125.04Y-131.25
X129.21Y-122.25
X129.21Y-125.25
X129.21Y-128.25
X129.21Y-131.25
X131.75Y-122.25
X131.75Y-125.25
X131.75Y-128.25
X131.75Y-131.25
X134.29Y-122.25
X134.29Y-125.25
X134.29Y-128.25
X134.29Y-131.25
T5
X89.437Y-124.999
X89.437Y-130.079
X91.977Y-127.539
X94.517Y-124.999
X94.517Y-130.079
T6
X106.Y-86.
X106.Y-130.
X150.Y-86.
X150.Y-130.
T0
M30
